<?xml version="1.0" standalone="no"?>
<!DOCTYPE svg PUBLIC "-//W3C//DTD SVG 1.1//EN" "http://www.w3.org/Graphics/SVG/1.1/DTD/svg11.dtd" >
<svg xmlns="http://www.w3.org/2000/svg" xmlns:xlink="http://www.w3.org/1999/xlink" version="1.1">
<metadata></metadata>
<defs>
<font id="airstrike_expandedexpanded" horiz-adv-x="1855" >
<font-face units-per-em="2048" ascent="1638" descent="-410" />
<missing-glyph horiz-adv-x="651" />
<glyph horiz-adv-x="0" />
<glyph unicode="&#xd;" horiz-adv-x="1024" />
<glyph unicode=" "  horiz-adv-x="651" />
<glyph unicode="&#x09;" horiz-adv-x="651" />
<glyph unicode="&#xa0;" horiz-adv-x="651" />
<glyph unicode="!" horiz-adv-x="610" d="M164 96q0 31 10 47q14 31 41 56.5t60.5 46t71.5 32t79 11.5q66 0 100.5 -28t34.5 -68q0 -35 -29.5 -78t-80.5 -74q-33 -18 -72 -29.5t-80 -11.5q-66 0 -100.5 26.5t-34.5 69.5zM221 350l322 735h473l-324 -735h-471z" />
<glyph unicode="&#x22;" horiz-adv-x="800" d="M446 811q0 -41 14.5 -78t53.5 -37h18q18 0 52 19.5t69 47.5t66 59.5t43 58.5l33 75q8 14 8 48q0 37 -27.5 60t-79.5 23q-33 0 -64.5 -10t-60 -28.5t-50 -42t-34.5 -50.5l-32 -75q-4 -14 -6.5 -32t-2.5 -38zM803 811q0 -41 14 -78t53 -37h19q18 0 52 19.5t68.5 47.5 t65.5 59.5t43 58.5l33 75q8 14 8 48q0 37 -27.5 60t-78.5 23q-33 0 -65 -10t-60.5 -28.5t-50 -42t-33.5 -50.5l-33 -75q-4 -14 -6 -32t-2 -38z" />
<glyph unicode="#" horiz-adv-x="1835" d="M135 209h309l-90 -209h471l93 209h188l-90 -209h471l90 209h74l352 276h-305l47 107h74l352 276h-305l96 217h-473l-96 -217h-189l96 217h-473l-94 -217h-80l-350 -276h309l-47 -107h-78zM1036 485l47 107h191l-47 -107h-191z" />
<glyph unicode="$" horiz-adv-x="1622" d="M96 0h570l-125 -289h309l125 289h375q66 0 128 34t110 85t78 111.5t30 113.5v12q0 47 -17.5 102.5t-53.5 103.5t-92 80t-134 32h-129l57 133h408q90 70 161.5 139.5t128.5 138.5h-575l123 285h-309l-123 -285h-369q-70 0 -138.5 -37.5t-123.5 -94t-90 -119t-35 -111.5 v-119q0 -39 5 -74.5t22.5 -62.5t49.5 -43t87 -16h295l-58 -134h-434q-8 0 -45 -35.5t-80 -81.5t-80.5 -91.5t-50.5 -65.5zM858 717v10q0 18 18.5 49t47.5 31h94l-57 -133h-29q-2 0 -20.5 7t-28.5 15q-6 4 -15.5 11.5t-9.5 9.5zM1096 274l57 134h49q20 0 27.5 -18t7.5 -34 v-24q0 -20 -6 -39t-43 -19h-92z" />
<glyph unicode="%" horiz-adv-x="1937" d="M209 0l1575 1085h426l-1581 -1085h-420zM420 791q2 12 6 24t8 25q20 45 59 89t88.5 78.5t106.5 56t113 21.5h162q76 0 136 -13t100 -44t55 -77.5t1 -114.5q0 -4 -4 -25l-10 -23q-18 -45 -58 -89t-92.5 -78.5t-114 -56t-124.5 -21.5h-123q-74 0 -136.5 11t-104.5 39 t-61 76t-7 122zM690 813q-4 -16 2 -32.5t17.5 -32t28 -24.5t34.5 -9h64q10 0 26.5 7t34.5 17.5t35.5 24.5t28.5 29q2 4 5 8t5 10l8 14q2 4 2 31q0 29 -17.5 48.5t-62.5 19.5h-74q-31 0 -65.5 -25t-56.5 -53zM1167 248q2 12 6.5 24.5t8.5 24.5q18 45 57 89t88 79t106.5 56.5 t112.5 21.5h162q74 0 135.5 -13.5t101.5 -44t56 -77.5t2 -115q0 -2 -1 -8t-3 -17l-10 -22q-18 -45 -58.5 -89t-92.5 -79t-113.5 -56.5t-125.5 -21.5h-122q-74 0 -136.5 11.5t-105.5 39t-61.5 75.5t-6.5 122zM1438 270q-4 -16 2 -32.5t17 -32t27.5 -24.5t35.5 -9h63 q23 0 63 24.5t60 53.5q8 8 12 18l4 15q2 4 2 30q0 29 -14 48.5t-61 19.5h-74q-31 0 -66.5 -24.5t-56.5 -53.5z" />
<glyph unicode="&#x26;" horiz-adv-x="1966" d="M150 125q0 -33 16 -56.5t56 -39t106.5 -22.5t167.5 -7h698q145 0 235.5 15.5t146.5 47t92 83t73 122.5l12 31q12 23 21.5 50.5t15.5 53.5h78l352 277h-1116l-330 -238l137 320q14 23 45 34t43 11h596q82 68 148.5 137.5t126.5 140.5h-899q-152 0 -246 -23.5t-151.5 -59 t-86 -79.5t-47.5 -85l-14 -33q-23 -31 -35 -77t-12 -93q0 -37 10 -66.5t39 -42.5q-25 -16 -68 -38.5t-81 -63.5q-25 -27 -45.5 -62.5t-34.5 -62.5l-13 -31q-16 -43 -26 -78.5t-10 -64.5zM723 324l37 92h532q0 -14 -9 -40t-15 -32l-4 -10l-11 -10q-8 -6 -22 -13.5 t-29.5 -14.5t-21.5 -10l-17 -7h-393q-6 0 -22.5 17t-24.5 28z" />
<glyph unicode="'" horiz-adv-x="444" d="M446 811q0 -41 14.5 -78t53.5 -37h18q18 0 52 19.5t69 47.5t66 59.5t43 58.5l33 75q8 14 8 48q0 37 -27.5 60t-79.5 23q-33 0 -64.5 -10t-60 -28.5t-50 -42t-34.5 -50.5l-32 -75q-4 -14 -6.5 -32t-2.5 -38z" />
<glyph unicode="(" horiz-adv-x="1007" d="M293 418v4v2q0 66 27.5 143.5t78 156.5t117 151.5t145 129t163.5 90t171 33.5h418q-72 -78 -143.5 -146.5t-161.5 -129.5h-41q-41 0 -81 -24.5t-74.5 -61.5t-62.5 -79t-42 -77l-21 -49q-12 -29 -25 -62.5t-13 -45.5v-2q0 -41 32.5 -82t74.5 -78t83 -67.5t59 -49.5v-12 q0 -18 -10 -46t-26.5 -60.5t-36 -66.5t-37.5 -65q-41 6 -101.5 18.5t-126 35t-131 57.5t-118 88t-85 126t-32.5 169z" />
<glyph unicode=")" horiz-adv-x="1005" d="M53 -76q72 78 142.5 146.5t160.5 130.5h41q39 0 79 24.5t76 61.5t63.5 79t43.5 76l15 35q14 35 27.5 74t15.5 51q0 39 -25.5 79t-63.5 77t-81 66.5t-80 47.5v13q0 16 10 46t26.5 64.5t37 69.5t39.5 63q41 -6 100 -18t124.5 -33.5t131 -57.5t118 -88t85 -125t32.5 -169v-6 v-2q0 -66 -27.5 -143.5t-76.5 -156.5t-116.5 -152t-145.5 -129t-163 -90t-171 -34h-418z" />
<glyph unicode="*" horiz-adv-x="604" d="M475 928l115 -113l102 98l19 -98l213 109l-60 71l140 19v157l-130 -47l60 95h-213l-31 -95l-72 52l-129 -158l103 -23z" />
<glyph unicode="+" horiz-adv-x="1132" d="M219 399h363l-86 -198h331l86 198h119l352 277h-350l94 211h-331l-95 -211h-133z" />
<glyph unicode="," horiz-adv-x="512" d="M90 -2q0 -25 4 -50.5t13.5 -47t26 -34.5t42.5 -13h23q23 0 62.5 21.5t81.5 52t77 66.5t47 64l37 86q12 33 12 50q0 41 -35 68.5t-100 27.5q-41 0 -79 -11.5t-71.5 -32t-59.5 -46t-40 -56.5l-37 -86q-4 -4 -4 -28v-31z" />
<glyph unicode="-" horiz-adv-x="886" d="M219 399l350 277h570l-353 -277h-567z" />
<glyph unicode="." horiz-adv-x="512" d="M121 96q0 35 10 47q14 31 40 56.5t59.5 46t71.5 32t79 11.5q66 0 100.5 -28t34.5 -68q0 -35 -28.5 -78t-81.5 -74q-31 -18 -71 -29.5t-79 -11.5q-66 0 -100.5 26.5t-34.5 69.5z" />
<glyph unicode="/" horiz-adv-x="1613" d="M45 0h522l1477 1085h-524z" />
<glyph unicode="0" horiz-adv-x="1771" d="M279 391q0 25 2 51.5t6 55.5q18 98 90 202.5t177 190.5t233 140t257 54h324q133 0 243.5 -21.5t190.5 -67.5t124 -119.5t44 -176.5q0 -51 -12 -112q-16 -98 -89 -202.5t-183.5 -190.5t-248 -140.5t-284.5 -54.5h-246q-135 0 -250.5 18.5t-199.5 62.5t-131 119.5 t-47 190.5zM748 500q0 -37 17 -77t46 -73t69 -53.5t83 -20.5h163q29 0 74 17.5t93 46.5t91 64.5t66 70.5q25 31 27 45l10 21l3 15t1 3q6 33 6 70q0 33 -8 65.5t-29.5 58t-59.5 41t-100 15.5h-198q-39 0 -85 -17.5t-90 -46t-82 -64.5t-61 -71q-14 -25 -23 -46.5t-11 -37.5 q-2 -2 -2 -14v-12z" />
<glyph unicode="1" horiz-adv-x="798" d="M258 0l354 809h-202v2q2 8 35.5 45t79.5 82t94.5 87t80.5 60h504l-475 -1085h-471z" />
<glyph unicode="2" horiz-adv-x="1624" d="M137 131q0 -55 33 -93t104 -38h1119q39 31 88 78t92 90t71 74l29 32h-995q-27 1 -27 15l47 67q14 16 34 29.5t40 13.5h492q72 0 157.5 31t170.5 79t158 104.5t118 107.5q39 47 60.5 101.5t21.5 107.5q0 66 -36 110.5t-112 44.5h-1087q-33 -29 -73 -62.5t-80 -70.5 t-75.5 -74.5t-60.5 -70.5h977q23 0 22 -25q0 -35 -24 -55l-10 -10q0 -2 -14.5 -9.5t-24.5 -11.5q-8 -4 -21.5 -9t-26 -10t-21.5 -8l-9 -3h-467q-66 0 -149 -32t-164.5 -80t-152.5 -103.5t-110 -100.5q-45 -53 -69.5 -110.5t-24.5 -108.5z" />
<glyph unicode="3" horiz-adv-x="1648" d="M70 0q66 78 123.5 149t125.5 130h801l12 5q13 5 28.5 12t29.5 14t22 14l4 4q3 4 5 6l6 10q4 6 5 20.5t1 28.5h-664l379 277h393q2 0 11.5 9t19.5 21.5t18.5 23.5t10.5 17l4 11q-2 2 -3 6l-1 4q-8 10 -25.5 27.5t-23.5 17.5h-920q53 72 112.5 142.5t135.5 135.5h946 q63 0 110.5 -31.5t78 -77.5t46 -98.5t15.5 -93.5v-4q0 -39 -16.5 -78.5t-43 -75.5t-61.5 -62.5t-69 -39.5q10 -16 34.5 -38.5t26.5 -63.5q0 -29 -13.5 -67t-25.5 -64l-10 -23q-37 -72 -73 -123t-92 -82.5t-146.5 -47t-233.5 -15.5h-1083z" />
<glyph unicode="4" horiz-adv-x="1607" d="M238 389h839l252 213l-262 -602h471l475 1085h-473l-184 -419h-531l185 419h-467z" />
<glyph unicode="5" horiz-adv-x="1607" d="M78 0q12 20 50 65.5t81 91.5t80 81.5t45 35.5h835q49 39 50 82q0 16 -6.5 29.5t-28.5 13.5h-492q-51 0 -108.5 26t-105.5 66.5t-79.5 92t-31.5 100.5q0 10 1 19.5t3 19.5l159 362h1477q-57 -70 -129 -139t-160 -139h-844l-34 -80v-10q0 -2 10 -9.5t14 -11.5 q10 -8 28.5 -19t20.5 -11h467q63 0 118.5 -32t95.5 -79t62.5 -102.5t22.5 -100.5v-8q0 -53 -29.5 -113.5t-77.5 -111.5t-110.5 -85t-130.5 -34h-1253z" />
<glyph unicode="6" horiz-adv-x="1562" d="M311 498v4q0 98 52.5 202.5t140.5 188.5t204.5 138t245.5 54h1014q-72 -78 -143.5 -146.5t-157.5 -129.5h-639q-61 0 -113.5 -40t-89.5 -93h670q111 -18 156 -64.5t45 -117.5q-1 -46 -15 -95q-33 -72 -89 -143.5t-129.5 -128.5t-159.5 -92t-177 -35q-152 0 -298 22.5 t-260.5 79t-185.5 152.5t-71 244zM825 416l15 -19q35 -47 70.5 -82.5t86.5 -35.5h144l61 77q-8 18 -17.5 36t-56.5 24h-303z" />
<glyph unicode="7" horiz-adv-x="1501" d="M137 0l934 809h-661v2q2 8 35.5 45t79.5 82t94.5 87t80.5 60h1231l-1296 -1085h-498z" />
<glyph unicode="8" horiz-adv-x="1724" d="M150 125q0 29 10 64.5t26 78.5l13 31q14 27 34.5 62.5t45.5 62.5q39 41 81.5 63.5t67.5 38.5q-29 12 -39 42t-10 67q0 47 12 93t35 77l14 33q18 41 47 85t86.5 79.5t151.5 59t246 23.5h733q61 0 108.5 -28.5t78 -70.5t46 -91t15.5 -92v-29q0 -31 -23 -80 q-25 -57 -69.5 -104t-98.5 -66q10 -16 35 -38.5t27 -63.5v-6q0 -23 -9.5 -52.5t-21.5 -54.5l-18 -41q-37 -72 -73 -123t-92.5 -82.5t-146.5 -47t-233 -15.5h-733q-100 0 -167 7t-107 22.5t-56 39t-16 56.5zM723 324q8 -10 24.5 -27.5t22.5 -17.5h426q2 0 13.5 5t26.5 12 t29.5 14t22.5 14l3 4t7 6l5 10q6 6 15 31.5t9 40.5h-567l-35 -76l2 -4q0 -2 -1 -3t-1 -3zM774 442l330 238h321q4 0 11.5 7t15.5 17.5t15.5 20.5t9.5 16v21q-8 10 -24.5 26.5t-25.5 18.5h-428q-12 0 -43 -11t-45 -34z" />
<glyph unicode="9" horiz-adv-x="1562" d="M70 0q72 78 143.5 146.5t157.5 129.5h639q61 0 113.5 40t88.5 94h-669q-111 18 -156 64t-45 118q0 45 14 94q33 72 89.5 143.5t129 128t158.5 92t178 35.5h21q246 0 400.5 -23.5t240.5 -79.5t117.5 -152.5t31.5 -241.5v-6q0 -98 -53 -202t-141 -187.5t-204 -138 t-241 -54.5h-1013zM836 729q4 -10 7 -19.5t9 -16.5t19 -14t38 -9h303l-12 14q-35 47 -72.5 85t-91.5 38h-141z" />
<glyph unicode=":" horiz-adv-x="514" d="M123 96q0 35 10 47q14 31 41 56.5t59.5 46t71.5 32t78 11.5q66 0 100.5 -28t34.5 -68q0 -35 -28.5 -78t-81.5 -74q-31 -18 -71 -29.5t-79 -11.5q-66 0 -100.5 26.5t-34.5 69.5zM354 631q1 35 11 47q14 31 39.5 56.5t59.5 46t71.5 31.5t78.5 11q66 0 101 -27.5t35 -68.5 q0 -35 -29 -78t-82 -74q-31 -18 -71 -29t-79 -11q-66 0 -100.5 26.5t-34.5 69.5z" />
<glyph unicode=";" horiz-adv-x="514" d="M90 -2q0 -25 4 -50.5t13.5 -47t26 -34.5t42.5 -13h23q23 0 62.5 21.5t81.5 52t77 66.5t47 64l37 86q12 33 12 50q0 41 -35 68.5t-100 27.5q-41 0 -79 -11.5t-71.5 -32t-59.5 -46t-40 -56.5l-37 -86q-4 -4 -4 -28v-31zM354 631q0 -43 35 -69.5t100 -26.5q59 0 116 24.5 t93 61.5q29 27 40.5 57.5t11.5 48.5q0 41 -35 68.5t-101 27.5q-41 0 -78.5 -11t-71.5 -31.5t-59.5 -46t-39.5 -56.5q-10 -12 -11 -47z" />
<glyph unicode="&#x3c;" horiz-adv-x="1116" d="M283 545l735 540h526l-735 -540l262 -545h-522z" />
<glyph unicode="=" horiz-adv-x="1060" d="M137 209l352 276h742l-350 -276h-744zM305 592l350 276h744l-352 -276h-742z" />
<glyph unicode="&#x3e;" horiz-adv-x="1116" d="M45 0h522l744 545l-264 540h-527l264 -540z" />
<glyph unicode="?" horiz-adv-x="1607" d="M217 96q0 33 8 47q31 59 101.5 102.5t150.5 43.5q66 0 100.5 -28t34.5 -68q0 -35 -29.5 -78t-80.5 -74q-33 -18 -72 -29.5t-78 -11.5q-66 0 -100.5 26.5t-34.5 69.5zM342 348q39 47 108.5 102.5t151.5 103.5t164 80t147 32h342l11 3q10 3 22 8t25.5 10t21.5 9 q10 4 24.5 11.5t14.5 9.5l10 10q25 20 25 55q0 25 -23 25h-978q25 33 61.5 70.5t76.5 74.5t80 71t72 62h1086q80 0 113.5 -46t33.5 -111q0 -53 -20.5 -107.5t-59.5 -99.5q-45 -51 -117.5 -107.5t-157.5 -104.5t-172 -79t-159 -31h-364q-80 0 -117 -21.5t-41 -27.5v-2h-381z " />
<glyph unicode="@" horiz-adv-x="1845" d="M291 418q0 -96 32.5 -169t84 -126t117 -88t132 -57.5t126 -35t102.5 -18.5h213q51 117 73.5 170t22.5 62h-14q-18 0 -45 1t-53.5 4t-50 6t-36.5 7q-18 18 -59 49t-83 68t-75 78t-33 82v2q0 10 18.5 56t39.5 101q14 35 42.5 77t63.5 79t75 61.5t81 24.5h313 q104 -14 161.5 -59t57.5 -111q0 -47 -16 -72q-23 -43 -70 -56t-112 -13h-33q6 4 7 9t5 11q12 39 13 60q0 53 -39 91t-113 38q-47 0 -98 -16.5t-97.5 -42t-82.5 -59.5t-50 -69q-2 -4 -2 -24v-23q0 -68 36 -115t138 -57h418q201 0 333 45t191 180q35 88 35 168v6 q0 96 -34.5 161t-90 106t-125 62.5t-138 32.5t-131 15t-103.5 10h-445q-100 0 -200.5 -46t-188.5 -120.5t-158.5 -166.5t-109.5 -185q-45 -98 -45 -190v-4zM1102 537q0 14 2 16q10 20 30.5 33.5t45.5 13.5q39 0 39 -29q0 2 -1 -3t-4 -15q-8 -20 -30.5 -33.5t-44.5 -13.5 q-37 0 -37 31z" />
<glyph unicode="A" d="M49 0q4 20 4 14v6l885 943q8 12 29.5 32.5t48 40t52.5 34.5t42 15h414q27 0 46 -22.5t34.5 -55t26.5 -68.5t18 -60l161 -879h-436l-51 231q-4 -12 -35 -46.5t-69.5 -73.5t-75.5 -72t-53 -39h-1041zM823 274h500l-86 482l-414 -461v-21z" />
<glyph unicode="B" horiz-adv-x="1693" d="M70 0l473 1085h1128q74 0 122 -25.5t75.5 -66.5t39 -96t11.5 -113v-4q0 -41 -20.5 -79.5t-51 -72.5t-66.5 -59.5t-65 -38.5q29 -18 49.5 -52t24.5 -75q0 -29 -12.5 -57.5t-24.5 -54.5l-10 -23q-37 -72 -78 -123t-101.5 -82.5t-148.5 -47t-219 -15.5h-1126zM662 279h503 l13 5q12 5 26.5 12t29.5 14t21 14l11 15q10 15 12 17l4 11q6 6 7 20t1 29h-565zM758 496l235 174h393q2 0 10.5 9t18.5 21.5t19.5 23.5t11.5 17l4 11q-2 2 -3 6l-1 4q-8 10 -26.5 27.5t-22.5 17.5h-504z" />
<glyph unicode="C" horiz-adv-x="1550" d="M311 498v4q0 98 52.5 202.5t140.5 188.5t204.5 138t245.5 54h1014q-72 -78 -143.5 -146.5t-157.5 -129.5h-639q-33 0 -68.5 -17.5t-68.5 -46t-60.5 -64.5t-42.5 -71q-18 -53 -18 -84q0 -39 24.5 -83t62.5 -80.5t84 -61.5t87 -25h586q-57 -70 -127 -142.5t-164 -133.5 h-197q-152 0 -298 22.5t-260.5 79t-185.5 153t-71 243.5z" />
<glyph unicode="D" horiz-adv-x="1617" d="M70 0h610q193 0 345.5 27.5t278.5 87t232.5 153t206.5 226.5q76 86 112.5 179t36.5 173q0 104 -66.5 171.5t-213.5 67.5h-1069zM666 276l233 533h399q47 0 64.5 -23.5t17.5 -58.5q0 -27 -15 -57.5t-30 -63.5q-14 -27 -32.5 -47t-32.5 -37q-35 -45 -100.5 -89t-144.5 -79 t-158 -56.5t-138 -21.5h-63z" />
<glyph unicode="E" horiz-adv-x="1536" d="M70 0l473 1085h1401q-16 -29 -56.5 -74.5t-86.5 -91t-89 -78t-63 -32.5h-756l-141 -322l233 189h567l-350 -277h-489l-54 -123h940q-2 -4 -11 -17t-19 -27.5t-20.5 -26.5t-12.5 -15q-23 -25 -60.5 -57.5t-74.5 -62t-65.5 -50t-30.5 -20.5h-1235z" />
<glyph unicode="F" horiz-adv-x="1525" d="M70 0l473 1085h1401q-16 -29 -56.5 -74.5t-86.5 -91t-89 -78t-63 -32.5h-756l-141 -322l233 189h567l-350 -277h-489l-174 -399h-469z" />
<glyph unicode="G" horiz-adv-x="1572" d="M311 498q0 -147 71 -243.5t185.5 -153t261 -79t297.5 -22.5h365l307 676h-590q-35 -23 -78 -65t-81.5 -84t-67.5 -75.5t-31 -39.5v-2h279l-58 -134h-143q-45 0 -91 25t-83 61.5t-60.5 80.5t-23.5 83q0 31 18 84q14 35 39 71t55.5 64.5t67.5 46t78 17.5h639 q86 61 157.5 130t143.5 146h-1014q-129 0 -245.5 -54t-204.5 -140t-140.5 -190.5t-52.5 -202.5z" />
<glyph unicode="H" horiz-adv-x="1607" d="M70 0l473 1085h473l-279 -634l250 215h375l184 419h467l-475 -1085h-467l170 389h-530l-170 -389h-471z" />
<glyph unicode="I" horiz-adv-x="1513" d="M57 0v2q2 8 35 45t79 82t94 87t81 60h295l233 533h-464v2q2 8 35.5 45t79.5 82t94.5 87t80.5 60h1231q-16 -29 -56 -74.5t-86 -91t-89 -78t-64 -32.5h-288l-234 -533h463q-16 -29 -56 -74.5t-86 -90.5t-89 -78t-64 -33h-1225z" />
<glyph unicode="J" horiz-adv-x="1409" d="M57 0q51 72 109.5 141.5t138.5 134.5h496q49 0 92 20.5t79 51.5t63.5 66t45.5 63l267 608h467l-240 -542q-55 -131 -111.5 -232.5t-133.5 -170t-183.5 -104.5t-263.5 -36h-72h-754z" />
<glyph unicode="K" horiz-adv-x="1716" d="M70 0l473 1085h473l-215 -487l813 487h526l-850 -542l471 -543h-524l-483 487l-213 -487h-471z" />
<glyph unicode="L" horiz-adv-x="1376" d="M70 0h1077q35 23 86 69t98 92t79 80.5t28 34.5h-779l353 809h-469z" />
<glyph unicode="M" horiz-adv-x="2054" d="M70 0l473 1085h596l125 -544l602 544h594l-473 -1085h-474l267 610l-670 -610h-168l-135 610l-266 -610h-471z" />
<glyph unicode="N" horiz-adv-x="1607" d="M70 0l473 1085h596l139 -610l268 610h467l-475 -1085h-594l-137 610l-266 -610h-471z" />
<glyph unicode="O" horiz-adv-x="1771" d="M279 391q0 25 2 51.5t6 55.5q20 115 92 221t176 187t232 130t257 49h324q297 0 451.5 -85t154.5 -281q0 -31 -4 -63.5t-12 -67.5q-23 -121 -96.5 -227.5t-182 -186.5t-245 -127t-281.5 -47h-246q-135 0 -250.5 18.5t-199.5 62.5t-131 119.5t-47 190.5zM748 500 q0 -37 17 -77t46 -73t69 -53.5t83 -20.5h163q25 0 70 17.5t94 46.5t93 64.5t67 70.5q25 31 27 45l10 21l3 15t1 3q6 33 6 70q0 33 -8 65.5t-29.5 58t-59.5 41t-100 15.5h-198q-39 0 -85 -17.5t-90 -46t-82 -64.5t-61 -71q-14 -25 -23 -46.5t-11 -37.5q-2 -2 -2 -14v-12z" />
<glyph unicode="P" horiz-adv-x="1658" d="M70 0l473 1085h1128q74 0 122 -31.5t75.5 -77.5t39 -98.5t11.5 -93.5q0 -86 -49 -157.5t-125 -123.5t-167 -81t-175 -29h-690l-172 -393h-471zM758 496l235 174h393q2 0 10.5 9t18.5 21.5t19.5 23.5t11.5 17l4 11q-2 2 -3 6l-1 4q-8 10 -26.5 27.5t-22.5 17.5h-504z" />
<glyph unicode="Q" horiz-adv-x="1755" d="M281 406q0 43 6 92q20 117 92 223t176 187t232 129t257 48h324q133 0 242.5 -24.5t187.5 -73.5t121 -122.5t43 -170.5q0 -25 -4 -51t-8 -55q-12 -59 -42 -119.5t-75 -119t-102.5 -113t-124.5 -99.5l118 -194h-491l-41 57h-221q-137 0 -262 18.5t-220.5 64.5t-151.5 124 t-56 199zM748 500q0 -37 17 -77t46 -73t69 -53.5t83 -20.5h32l-133 244h516l49 -80q8 12 23 35q25 31 27 45l10 21l3 15t1 3q4 2 4 21v24q0 37 -10 73t-36 65.5t-69 48t-110 18.5h-168q-39 0 -85 -17.5t-90 -46t-82 -64.5t-61 -71q-14 -25 -23 -46t-11 -38q-2 -2 -2 -14v-12 z" />
<glyph unicode="R" horiz-adv-x="1703" d="M70 0l473 1085h1095q84 0 137.5 -30.5t83 -77.5t40 -102.5t10.5 -102.5q0 -104 -60.5 -172t-153.5 -107.5t-204 -57t-211 -23.5l481 -412h-524l-508 389l-27 -16l-161 -373h-471zM754 492l217 182h393q37 0 53.5 28t16.5 48v22q0 16 -8.5 27.5t-36.5 11.5h-494z" />
<glyph unicode="S" horiz-adv-x="1622" d="M96 0h1254q66 0 128 34t110 85t78 111.5t30 113.5v12q0 47 -17.5 102.5t-53.5 103.5t-92 80t-134 32h-467q-2 0 -20.5 7t-28.5 15q-6 4 -15.5 11.5t-9.5 9.5v10q0 18 18.5 49t47.5 31h811q90 70 161.5 139.5t128.5 138.5h-1253q-70 0 -138.5 -37.5t-122.5 -94t-88 -119 t-34 -111.5q0 -53 22.5 -108.5t64.5 -101.5t101.5 -75.5t133.5 -29.5h491q20 0 27.5 -17.5t7.5 -34.5v-12v-12q0 -20 -6 -39t-43 -19h-836q-8 0 -45 -35.5t-80 -81.5t-80.5 -91.5t-50.5 -65.5z" />
<glyph unicode="T" horiz-adv-x="1513" d="M410 809v2q2 8 35.5 45t79.5 82t94.5 87t80.5 60h1231q-16 -29 -56 -74.5t-86 -91t-89 -78t-64 -32.5h-288l-355 -809h-473l354 809h-464z" />
<glyph unicode="U" horiz-adv-x="1675" d="M266 301q0 -82 29 -139.5t98.5 -93t183 -52t285.5 -16.5h289q145 0 251.5 38t187.5 111.5t144.5 181t125.5 249.5l221 505h-467l-264 -608q-18 -29 -47 -63.5t-69 -65.5t-90 -51.5t-110 -20.5h-121q-68 0 -109.5 40t-41.5 112q0 25 12 66q0 6 4 21t26.5 72.5t70 173.5 t133.5 324h-465l-195 -454q-23 -70 -40 -123t-29 -107q-12 -59 -13 -100z" />
<glyph unicode="V" horiz-adv-x="1820" d="M518 1085h428l119 -731l680 731h506l-873 -958q-10 -12 -32.5 -32.5t-49 -42t-52 -37t-44.5 -15.5h-405q-27 0 -47.5 22.5t-35 55.5t-24.5 68.5t-16 60.5z" />
<glyph unicode="W" horiz-adv-x="2142" d="M518 186v899h406v-536l417 536h379l41 -499l379 499h432l-741 -956q-10 -12 -28.5 -33.5t-40 -43t-42 -37t-32.5 -15.5h-289q-18 0 -29.5 27.5t-22 85t-21.5 147.5t-28 215l-290 -346q-12 -12 -29.5 -33.5t-37 -43t-39 -37t-34.5 -15.5h-293q-18 0 -29 19.5t-17.5 47 t-8.5 60.5t-2 59z" />
<glyph unicode="X" horiz-adv-x="1617" d="M45 0l739 545l-264 540h527l122 -256l351 256h524l-733 -540l262 -545h-524l-127 260l-355 -260h-522z" />
<glyph unicode="Y" horiz-adv-x="1611" d="M518 1085h526l123 -256l349 256h526l-774 -569l-226 -516h-473l228 516z" />
<glyph unicode="Z" horiz-adv-x="1513" d="M57 0l1014 809h-661v2q2 8 35.5 45t79.5 82t94.5 87t80.5 60h1231l-1013 -809h659q-16 -29 -56 -74.5t-86 -90.5t-89 -78t-64 -33h-1225z" />
<glyph unicode="[" horiz-adv-x="1011" d="M20 -115l582 1338h864q-16 -29 -56 -75t-86 -91t-89 -78t-64 -33h-221l-340 -784h406q-4 -4 -13.5 -17.5t-20.5 -28t-21.5 -26.5t-12.5 -14q-23 -25 -59.5 -57.5t-73.5 -62.5t-64.5 -50.5t-29.5 -20.5h-701z" />
<glyph unicode="\" horiz-adv-x="1613" d="M518 1085h526l527 -1085h-524z" />
<glyph unicode="]" horiz-adv-x="1011" d="M27 -117q18 27 58 74t86 92t88 78t63 33h221l344 784h-406q2 4 12.5 17.5t20.5 28t19.5 26.5t11.5 14q23 25 60.5 57.5t74.5 62.5t65.5 50.5t30.5 20.5h701l-584 -1338h-866z" />
<glyph unicode="^" d="M49 0h524l664 756l137 -756h436l-161 879q-6 25 -17.5 60.5t-27 68t-35 55t-45.5 22.5h-414q-16 0 -42 -15t-52.5 -34.5t-48 -40t-29.5 -32.5l-885 -943v-6q0 6 -4 -14z" />
<glyph unicode="_" horiz-adv-x="1134" d="M45 0l350 276h817l-352 -276h-815z" />
<glyph unicode="`" horiz-adv-x="417" d="M495 956.5q3 -12.5 9 -24.5l14 -47q14 -27 51 -47.5t72 -20.5q23 0 27 4l16 8q20 8 31.5 23.5t21.5 34.5q12 29 6 50t-6 42l-20 45q-6 23 -17.5 42t-40.5 19q-14 0 -69 -16q-66 -33 -90 -86q-8 -14 -5 -26.5z" />
<glyph unicode="a" d="M49 0q4 20 4 14v6l885 943q8 12 29.5 32.5t48 40t52.5 34.5t42 15h414q27 0 46 -22.5t34.5 -55t26.5 -68.5t18 -60l161 -879h-436l-51 231q-4 -12 -35 -46.5t-69.5 -73.5t-75.5 -72t-53 -39h-1041zM823 274h500l-86 482l-414 -461v-21z" />
<glyph unicode="b" horiz-adv-x="1693" d="M70 0l473 1085h1128q74 0 122 -25.5t75.5 -66.5t39 -96t11.5 -113v-4q0 -41 -20.5 -79.5t-51 -72.5t-66.5 -59.5t-65 -38.5q29 -18 49.5 -52t24.5 -75q0 -29 -12.5 -57.5t-24.5 -54.5l-10 -23q-37 -72 -78 -123t-101.5 -82.5t-148.5 -47t-219 -15.5h-1126zM662 279h503 l13 5q12 5 26.5 12t29.5 14t21 14l11 15q10 15 12 17l4 11q6 6 7 20t1 29h-565zM758 496l235 174h393q2 0 10.5 9t18.5 21.5t19.5 23.5t11.5 17l4 11q-2 2 -3 6l-1 4q-8 10 -26.5 27.5t-22.5 17.5h-504z" />
<glyph unicode="c" horiz-adv-x="1550" d="M311 498v4q0 98 52.5 202.5t140.5 188.5t204.5 138t245.5 54h1014q-72 -78 -143.5 -146.5t-157.5 -129.5h-639q-33 0 -68.5 -17.5t-68.5 -46t-60.5 -64.5t-42.5 -71q-18 -53 -18 -84q0 -39 24.5 -83t62.5 -80.5t84 -61.5t87 -25h586q-57 -70 -127 -142.5t-164 -133.5 h-197q-152 0 -298 22.5t-260.5 79t-185.5 153t-71 243.5z" />
<glyph unicode="d" horiz-adv-x="1617" d="M70 0h610q190 0 339.5 26.5t273.5 85t231 151.5t213 226q78 86 116.5 181.5t38.5 175.5q0 104 -66.5 171.5t-213.5 67.5h-1069zM666 276l233 533h399q47 0 64.5 -23.5t17.5 -58.5q0 -27 -14 -57.5t-29 -63.5q-14 -27 -31.5 -47t-31.5 -37q-37 -45 -101.5 -89t-141.5 -79 t-156.5 -56.5t-145.5 -21.5h-63z" />
<glyph unicode="e" horiz-adv-x="1536" d="M70 0l473 1085h1401q-16 -29 -56.5 -74.5t-86.5 -91t-89 -78t-63 -32.5h-756l-141 -322l233 189h567l-350 -277h-489l-54 -123h940q-2 -4 -11 -17t-19 -27.5t-20.5 -26.5t-12.5 -15q-23 -25 -60.5 -57.5t-74.5 -62t-65.5 -50t-30.5 -20.5h-1235z" />
<glyph unicode="f" horiz-adv-x="1525" d="M70 0l473 1085h1401q-16 -29 -56.5 -74.5t-86.5 -91t-89 -78t-63 -32.5h-756l-141 -322l233 189h567l-350 -277h-489l-174 -399h-469z" />
<glyph unicode="g" horiz-adv-x="1572" d="M311 498q0 -147 71 -243.5t185.5 -153t261 -79t297.5 -22.5h365l307 676h-590q-35 -23 -78 -65t-81.5 -84t-67.5 -75.5t-31 -39.5v-2h279l-58 -134h-143q-45 0 -91 25t-83 61.5t-60.5 80.5t-23.5 83q0 31 18 84q14 35 39 71t55.5 64.5t67.5 46t78 17.5h639 q86 61 157.5 130t143.5 146h-1014q-129 0 -245.5 -54t-204.5 -140t-140.5 -190.5t-52.5 -202.5z" />
<glyph unicode="h" horiz-adv-x="1607" d="M70 0l473 1085h473l-279 -634l250 215h375l184 419h467l-475 -1085h-467l170 389h-530l-170 -389h-471z" />
<glyph unicode="i" horiz-adv-x="618" d="M74 0l475 1085h471l-475 -1085h-471z" />
<glyph unicode="j" horiz-adv-x="1409" d="M57 0q51 72 109.5 141.5t138.5 134.5h496q49 0 92 20.5t79 51.5t63.5 66t45.5 63l267 608h467l-240 -542q-55 -131 -111.5 -232.5t-133.5 -170t-183.5 -104.5t-263.5 -36h-72h-754z" />
<glyph unicode="k" horiz-adv-x="1716" d="M70 0l473 1085h473l-215 -487l813 487h526l-850 -542l471 -543h-524l-483 487l-213 -487h-471z" />
<glyph unicode="l" horiz-adv-x="1376" d="M70 0h1077q35 23 86 69t98 92t79 80.5t28 34.5h-779l353 809h-469z" />
<glyph unicode="m" horiz-adv-x="2054" d="M70 0l473 1085h596l125 -544l602 544h594l-473 -1085h-474l267 610l-670 -610h-168l-135 610l-266 -610h-471z" />
<glyph unicode="n" horiz-adv-x="1607" d="M70 0l473 1085h596l139 -610l268 610h467l-475 -1085h-594l-137 610l-266 -610h-471z" />
<glyph unicode="o" horiz-adv-x="1814" d="M279 391q0 25 2 51.5t6 55.5q18 111 90 216t177 188t233 133t257 50h367q139 0 251 -21.5t189.5 -66.5t119.5 -117.5t42 -172.5q0 -29 -2 -57.5t-10 -61.5q-23 -115 -96.5 -221.5t-182 -187.5t-245 -130t-283.5 -49h-287q-135 0 -250.5 18.5t-199.5 62.5t-131 119.5 t-47 190.5zM748 500q0 -37 17 -77t46 -73t69 -53.5t83 -20.5h204q20 0 66.5 17.5t95.5 46.5t94 64.5t68 70.5q12 14 18.5 25.5t10.5 19.5l8 21q6 20 6 18q2 16 3 33.5t1 36.5q0 33 -7 65.5t-28.5 58t-60.5 41t-101 15.5h-239q-39 0 -85 -17.5t-90 -46t-82 -64.5t-61 -71 q-14 -25 -23 -46.5t-11 -37.5q-2 -2 -2 -14v-12z" />
<glyph unicode="p" horiz-adv-x="1658" d="M70 0l473 1085h1128q68 0 116 -31.5t76.5 -77.5t42 -98.5t13.5 -93.5q0 -86 -49 -157.5t-125 -123.5t-167 -81t-175 -29h-690l-172 -393h-471zM758 496l235 174h393q2 0 10.5 9t18.5 21.5t19.5 23.5t11.5 17l4 11q-2 2 -3 6l-1 4q-8 10 -26.5 27.5t-22.5 17.5h-504z" />
<glyph unicode="q" horiz-adv-x="1746" d="M281 406q0 43 6 92q20 111 92 217t176 188t232 132t257 50h324q133 0 242.5 -24.5t187.5 -73.5t121 -122.5t43 -170.5q0 -25 -4 -51t-8 -55q-12 -59 -42 -119.5t-75 -119t-102.5 -113t-124.5 -99.5l118 -194h-491l-41 57h-221q-137 0 -262 18.5t-220.5 64.5t-151.5 124 t-56 199zM748 500q0 -37 17 -77t46 -73t69 -53.5t83 -20.5h32l-133 244h516l49 -80q8 12 23 35q25 31 27 45l10 21l3 15t1 3q4 2 4 21v24q0 37 -10 73t-36 65.5t-69 48t-110 18.5h-168q-39 0 -85 -17.5t-90 -46t-82 -64.5t-61 -71q-14 -25 -23 -46t-11 -38q-2 -2 -2 -14v-12 z" />
<glyph unicode="r" horiz-adv-x="1718" d="M70 0l473 1085h1095q90 0 143.5 -30.5t82 -77.5t37 -102.5t8.5 -102.5q0 -104 -60.5 -172t-153.5 -107.5t-204 -57t-211 -23.5l481 -412h-524l-508 389l-27 -16l-161 -373h-471zM754 492l217 182h393q37 0 53.5 28t16.5 48v22q0 16 -8.5 27.5t-36.5 11.5h-494z" />
<glyph unicode="s" horiz-adv-x="1622" d="M96 0h1254q66 0 128 34t110 85t78 111.5t30 113.5v12q0 47 -16.5 102.5t-51.5 103.5t-92 80t-137 32h-467q-2 0 -20.5 7t-28.5 15q-6 4 -15.5 11.5t-9.5 9.5v10q0 18 18.5 49t47.5 31h811q90 70 161.5 139.5t128.5 138.5h-1253q-70 0 -138.5 -37.5t-122.5 -94t-88 -119 t-34 -111.5q0 -53 22.5 -108.5t64.5 -101.5t101.5 -75.5t133.5 -29.5h491q20 0 27.5 -17.5t7.5 -34.5v-12v-12q0 -20 -6 -39t-43 -19h-836q-8 0 -45 -35.5t-80 -81.5t-80.5 -91.5t-50.5 -65.5z" />
<glyph unicode="t" horiz-adv-x="1513" d="M410 809v2q2 8 35.5 45t79.5 82t94.5 87t80.5 60h1231q-16 -29 -56 -74.5t-86 -91t-89 -78t-64 -32.5h-288l-355 -809h-473l354 809h-464z" />
<glyph unicode="u" horiz-adv-x="1675" d="M260 307q0 -82 29.5 -140t99.5 -95t185.5 -54.5t287.5 -17.5h289q145 0 251.5 38t187.5 111.5t144.5 181t125.5 249.5l221 505h-467l-264 -608q-18 -29 -47 -63.5t-69 -65.5t-90 -51.5t-110 -20.5h-121q-57 0 -104 40t-47 112q0 25 12 66q0 6 4 21t26.5 72.5t70 173.5 t133.5 324h-465l-195 -454q-23 -70 -44 -122t-34 -106q-6 -29 -8 -51t-2 -45z" />
<glyph unicode="v" horiz-adv-x="1820" d="M518 1085h428l119 -731l680 731h506l-873 -958q-10 -12 -32.5 -32.5t-49 -42t-52 -37t-44.5 -15.5h-405q-27 0 -47.5 22.5t-35 55.5t-24.5 68.5t-16 60.5z" />
<glyph unicode="w" horiz-adv-x="2142" d="M217 272q0 35 8.5 68t22.5 68l297 677h463l-217 -534q-2 -10 -7.5 -29.5t-11.5 -39t-10 -36t-4 -22.5q0 -55 18.5 -80t49 -36t68.5 -13t75 -10l348 800h467l-354 -811h299l352 811h467l-473 -1085h-1315q-156 0 -260.5 22.5t-167 59.5t-89 86t-26.5 104z" />
<glyph unicode="x" horiz-adv-x="1617" d="M45 0l739 545l-264 540h527l122 -256l351 256h524l-733 -540l262 -545h-524l-127 260l-355 -260h-522z" />
<glyph unicode="y" horiz-adv-x="1611" d="M518 1085h526l123 -256l349 256h526l-774 -569l-226 -516h-473l228 516z" />
<glyph unicode="z" horiz-adv-x="1513" d="M57 0l1014 809h-661v2q2 8 35.5 45t79.5 82t94.5 87t80.5 60h1231l-1013 -809h659q-16 -29 -56 -74.5t-86 -90.5t-89 -78t-64 -33h-1225z" />
<glyph unicode="{" horiz-adv-x="1363" d="M219 399h375l-223 -514h700q4 0 31.5 20.5t64.5 50.5t74 62.5t59 57.5q2 2 12.5 14t20.5 26.5t20.5 28t12.5 17.5h-405l342 784h221q20 0 62 33t88 78t87 91t58 75h-865l-239 -547h-146z" />
<glyph unicode="|" horiz-adv-x="610" d="M-57 -289l723 1659h473l-723 -1659h-473z" />
<glyph unicode="}" horiz-adv-x="1363" d="M27 -117h866l237 547h146l354 277h-377l224 514h-701q-2 0 -30.5 -20.5t-65.5 -50.5t-75 -62.5t-60 -57.5q-2 -2 -11.5 -14t-19.5 -26.5t-20.5 -28t-12.5 -17.5h406l-344 -784h-221q-20 0 -62.5 -33t-88.5 -78t-86 -92t-58 -74z" />
<glyph unicode="~" horiz-adv-x="1015" d="M221 399h242l155 140l82 -140h213q14 0 32 10.5t30 18.5q109 92 168 142.5t85.5 73t31.5 27.5l4 5h-242l-158 -139l-78 139h-217q-12 0 -29.5 -10.5t-31.5 -18.5z" />
<glyph horiz-adv-x="430" />
<glyph unicode="&#xa1;" horiz-adv-x="610" d="M70 0l321 735h471l-321 -735h-471zM521 885.5q-3 25.5 11 56.5q29 59 101 101t151 42q78 0 115 -42t8 -101q-12 -31 -37.5 -56.5t-59.5 -46t-73 -31.5t-78 -11q-41 0 -70.5 11t-47 31.5t-20.5 46z" />
<glyph unicode="&#xa2;" horiz-adv-x="1550" d="M311 498v4q0 98 52.5 202.5t140.5 188.5t204.5 138t245.5 54h303l123 283h312l-123 -283h399q-72 -78 -143.5 -146.5t-157.5 -129.5h-219l-234 -533h400q-57 -70 -127 -142.5t-164 -133.5h-229l-127 -291h-312l142 320q-104 18 -192.5 54t-154 92t-102.5 136t-37 187z M770 522q0 -55 45 -113.5t105 -97.5l219 498h-111q-41 0 -78 -17.5t-67.5 -46t-55 -64.5t-39.5 -71q-18 -53 -18 -84v-4z" />
<glyph unicode="&#xa3;" horiz-adv-x="1656" d="M45 0l350 276h146l22 48q4 14 10.5 28.5t18.5 30.5h-381l352 276h174q2 8 4 16.5t9 18.5q12 23 25 45.5t34 44.5q37 41 98.5 93.5t133 98.5t145.5 77.5t137 31.5h172q16 -66 15 -136t-13 -142h-145q-4 0 -14.5 -5t-24 -12.5t-27.5 -14.5t-22 -13l-11 -10l-4 -11 q-6 -10 -8 -28.5t-2 -34.5q0 -8 4 -8h215l137 -277h-485q-12 -14 -21.5 -28.5t-15.5 -20.5l-4 -10q2 -2 3 -6l1 -4q8 -10 25.5 -27.5t21.5 -17.5h482q18 -53 18 -132q0 -35 -2 -71.5t-6 -75.5h-1567z" />
<glyph unicode="&#xa4;" horiz-adv-x="1617" d="M45 0l475 350l4 2q-49 63 -30 166q8 61 58 127t126 119l-158 321h527l106 -219h41h27l299 219h524l-471 -346q23 -33 31 -74t-2 -94q-12 -61 -60.5 -126.5t-128.5 -116.5l160 -328h-524l-107 223h-20h-50l-305 -223h-522zM799 535q-4 -23 7 -49.5t32.5 -48t50.5 -36 t61 -14.5h109q18 0 48 10.5t60.5 27.5t58 37.5t42.5 41.5q10 10 14 26q10 12 10 25q2 23 1 49.5t-14 48t-42 35.5t-80 14h-133q-27 0 -55.5 -10t-56 -27.5t-52 -39t-39.5 -41.5q-8 -14 -15 -26.5t-7 -22.5z" />
<glyph unicode="&#xa5;" horiz-adv-x="1611" d="M233 129h394l-58 -129h473l56 129h155l308 164h-392l27 61h156l307 164h-389l772 567h-526l-349 -256l-123 256h-526l277 -567h-156l-307 -164h393l-27 -61h-157z" />
<glyph unicode="&#xa6;" horiz-adv-x="610" d="M-57 -289l723 1659h473l-723 -1659h-473z" />
<glyph unicode="&#xa7;" horiz-adv-x="1617" d="M45 0l479 352q-49 63 -30 166q0 14 5 27.5t9 29.5q23 49 66.5 98.5t103.5 90.5q111 61 228.5 81.5t246.5 20.5h68l299 219h524l-471 -346q23 -33 31 -74t-2 -94q-4 -14 -7.5 -28.5t-11.5 -28.5q-20 -49 -62 -97t-108 -89q-94 -43 -207.5 -74t-263.5 -31h-70l-305 -223 h-522zM799 535q-4 -23 7 -49.5t32.5 -48t50.5 -36t61 -14.5h109q18 0 48 10.5t60.5 27.5t58 37.5t42.5 41.5q10 10 14 26q10 12 10 25q2 23 1 49.5t-14 48t-42 35.5t-80 14h-133q-27 0 -55.5 -10t-56 -27.5t-52 -39t-39.5 -41.5l-18 -35q-4 -16 -4 -14z" />
<glyph unicode="&#xa8;" horiz-adv-x="894" d="M489 965q-23 -51 7 -86t96 -35q33 0 65.5 9t61.5 25.5t50.5 39t31.5 47.5q23 51 -7 85.5t-96 34.5t-127.5 -34.5t-81.5 -85.5zM934 965q-23 -51 8 -86t98 -35q66 0 124 35t81 86t-6 85.5t-94 34.5q-33 0 -65.5 -9t-61.5 -25.5t-51.5 -39t-32.5 -46.5z" />
<glyph unicode="&#xa9;" horiz-adv-x="684" d="M489 879q-16 51 13 110q12 31 34.5 58.5t51.5 56.5q57 53 139 84q43 14 78.5 21.5t66.5 7.5q63 0 121 -29q55 -31 66 -84q16 -47 -12 -115q-12 -29 -33 -56.5t-53 -53.5q-29 -29 -62 -49.5t-76 -36.5q-119 -29 -147 -29q-66 0 -123 29q-25 16 -40 36.5t-24 49.5z M535.5 942q-3.5 -22 1.5 -45q8 -37 53 -70q43 -25 102 -24q57 0 123 24q59 20 115 70q45 39 69 92q10 25 13.5 49.5t-0.5 46.5q-6 41 -56 70q-37 25 -98 25q-57 0 -121.5 -23.5t-118.5 -71.5q-29 -23 -43 -47t-26 -49q-10 -25 -13.5 -47zM626.5 894q-24.5 34 4.5 95 q29 63 83 96t120 33q94 0 90 -71l-43 -9q-10 47 -62 47q-45 0 -81 -24.5t-58 -71.5q-41 -92 49 -92q76 0 119 57l39 -10q-29 -39 -74 -61.5t-96 -22.5q-66 0 -90.5 34z" />
<glyph unicode="&#xab;" horiz-adv-x="757" d="M274 473q-4 -10 3.5 -20.5t13.5 -16.5l192 -141l84 186l-112 76l194 111l72 168l-303 -166q-20 -12 -49 -33t-37 -37zM606 475q-4 -10 3 -20.5t14 -16.5l196 -141l80 186l-113 76l195 111l74 168l-305 -166q-20 -12 -49 -33t-37 -37z" />
<glyph unicode="&#xac;" horiz-adv-x="1163" d="M219 399h717l-86 -198h332l207 475h-820z" />
<glyph unicode="&#xad;" horiz-adv-x="782" d="M219 399l350 277h463l-352 -277h-461z" />
<glyph unicode="&#xae;" horiz-adv-x="684" d="M492 881q-16 55 10 110q12 31 35.5 58.5t52.5 56.5q55 53 137 84q92 29 147 29q68 0 119 -29q57 -31 69.5 -84t-15.5 -115q-12 -29 -34 -56.5t-50 -53.5q-29 -29 -63 -49.5t-77 -36.5q-119 -29 -147 -29q-66 0 -123 29q-47 33 -61 86zM535.5 940q-3.5 -22 3.5 -41 q6 -37 51 -70q43 -25 102 -24q57 0 123 24q29 10 58.5 27.5t58.5 42.5q27 25 42 47.5t25 44.5q25 55 13 96q-6 43 -54 70q-41 25 -100 25q-57 0 -121.5 -23.5t-118.5 -71.5q-49 -49 -69 -96q-10 -29 -13.5 -51zM602 868l109 244h98q61 0 72 -8q25 -10 24 -23q6 -16 0 -37 q-14 -27 -44 -46t-70 -21q23 -8 27.5 -21.5t15.5 -40.5l14 -47h-60l-6 37q-12 49 -28 58q-6 8 -31 8h-27l-47 -103h-47zM709 1004h55q43 0 62.5 10t25.5 26q12 27 -12 35q-2 2 -49 2h-52z" />
<glyph unicode="&#xaf;" horiz-adv-x="1134" d="M397 809l353 276h815l-351 -276h-817z" />
<glyph unicode="&#xb0;" horiz-adv-x="450" d="M489 965q-23 -51 7 -86t96 -35q33 0 65.5 9t61.5 25.5t50.5 39t31.5 47.5q23 51 -7 85.5t-96 34.5t-127.5 -34.5t-81.5 -85.5z" />
<glyph unicode="&#xb1;" horiz-adv-x="1132" d="M41 0h815l350 276h-813zM274 535h365l-86 -199h332l86 199h119l350 276h-348l92 211h-332l-92 -211h-133z" />
<glyph unicode="&#xb4;" horiz-adv-x="417" d="M445.5 852.5q0.5 15.5 11.5 34.5q14 29 35.5 50t44.5 42l57 45q29 23 57.5 42t57.5 19q27 0 53 -16q43 -37 16 -86q-6 -14 -19.5 -26.5t-29.5 -24.5l-57 -47q-16 -12 -41 -24.5t-50.5 -22t-49 -15.5t-42.5 -6q-18 0 -22 4l-10 8q-12 8 -11.5 23.5z" />
<glyph unicode="&#xb5;" horiz-adv-x="2056" d="M309 553l178 12l-45 113l11 53l165 -14l103 178q63 -55 106 -55q25 0 41 8l205 147l70 -75l295 114l20 -12l-22 -76l368 49l-67 -88h360l-139 -76l276 -63l4 -27h-14l-149 -34l170 -105l2 -24l-179 -13q61 -117 46 -151l-11 -17l-161 29l-91 -178l-151 53l-199 -154 l-86 76l-321 -125l34 49l-20 52l-358 -64l77 88l-364 15l139 71l-291 68l176 63zM549 434l61 17l107 219l-43 -8zM678 516q-23 -98 47 -98q2 0 53 10l13 37q-12 -2 -22.5 -3t-23.5 -1q-53 0 -30 43q18 47 73 90q47 33 76 33q12 0 23 -6l31 55q-186 -25 -230 -131l-4 -13 q-8 -14 -6 -16zM846 471q-4 -37 63 -37q8 0 17.5 1t21.5 3q64 0 162 156q8 74 -66 74h-14h-10q-113 -45 -174 -197zM913 530l9 15q61 74 100 73q31 0 31 -30q4 -5 -4 -25q-4 -14 -17.5 -30.5t-32.5 -36.5q-49 -18 -67 -19q-41 0 -19 53zM1069 434l39 6l47 105 q37 -107 96 -107l97 221l-37 11l-74 -154l-74 143zM1298 444l64 17l108 219l-53 -10zM1397 457h49q49 53 82 53q29 0 33 -53l24 -11l72 168q14 70 -31 70q-25 0 -37 -6q-66 -53 -111.5 -108.5t-80.5 -112.5zM1516 557l79 76l-6 -76h-73zM1626 444l37 2l49 111 q43 -111 94 -111l99 222l-35 12l-78 -156l-70 144zM1833 426l18 -29l52 37l-33 12zM1890 510l37 -6l101 164l-54 12z" />
<glyph unicode="&#xb6;" horiz-adv-x="1513" d="M258 434l61 17l109 219l-45 -8zM389 516q-25 -98 45 -98q4 0 17.5 3t37.5 7l13 37q-14 -2 -24.5 -3t-22.5 -1q-53 0 -29 43q18 47 74 90q45 33 75 33q10 0 23 -6l29 55q-184 -25 -230 -131l-4 -13q-6 -16 -4 -16zM555 471q-4 -37 63 -37q8 0 17.5 1t23.5 3q62 0 162 156 q6 74 -67 74h-15h-10q-109 -45 -174 -197zM625 530l6 15q63 74 102 73q29 0 29 -30q4 -5 -2 -25q-12 -29 -49 -67q-53 -18 -70 -19q-39 0 -16 53zM778 434l41 6l45 105q38 -107 97 -107l96 221l-37 11l-74 -154l-74 143zM1008 444l63 17l109 219l-52 -10zM1106 457h49 q53 53 84 53q27 0 31 -53l24 -11l72 168q14 70 -29 70q-29 0 -37 -6q-66 -53 -112.5 -108.5t-81.5 -112.5zM1227 557l78 76l-5 -76h-73zM1337 444l37 2l49 111q40 -111 93 -111l98 222l-33 12l-80 -156l-67 144zM1544 426l17 -29l51 37l-31 12zM1599 510l37 -6l101 164 l-54 12z" />
<glyph unicode="&#xb7;" horiz-adv-x="450" d="M311 537q0 -35 30 -57.5t81 -22.5q68 0 129 34.5t84 86.5q8 14 8 38q0 35 -30.5 58.5t-84.5 23.5q-66 0 -124.5 -34.5t-81.5 -85.5q-10 -16 -11 -41z" />
<glyph unicode="&#xb8;" horiz-adv-x="432" d="M-381 -238h641l109 250h-293l-27 -61h-131z" />
<glyph unicode="&#xbb;" horiz-adv-x="757" d="M197 293l305 166q20 12 49 32.5t37 36.5l53 127q6 10 0 20.5t-12 16.5l-197 142l-80 -187l113 -76l-195 -110zM528 295l306 166q20 12 48.5 32.5t37.5 36.5l55 127q6 10 -1 20.5t-13 16.5l-197 142l-80 -187l113 -76l-195 -110z" />
<glyph unicode="&#xbf;" horiz-adv-x="1607" d="M150 156q0 53 21.5 107t59.5 99q45 51 118 108.5t157 106t170 79t160 30.5h366q76 0 114 21.5t44 27.5v2h381q-41 -47 -110.5 -102t-151.5 -103.5t-165 -80t-147 -31.5h-342l-9 -3t-21.5 -8.5t-25.5 -10.5t-21 -9q-10 -4 -24.5 -11t-14.5 -9l-11 -11q-14 -10 -20 -26.5 t-6 -30.5q0 -23 20 -22h979q-25 -35 -61.5 -73t-76.5 -75t-79 -70.5t-70 -60.5h-1087q-78 0 -112.5 45t-34.5 111zM1470 895q0 33 9 47q29 59 100.5 101t151.5 42q66 0 100.5 -26.5t34.5 -67.5q0 -8 -4.5 -20.5t-8.5 -28.5q-12 -31 -37.5 -56.5t-59.5 -46t-72.5 -31.5 t-77.5 -11q-66 0 -101 27.5t-35 70.5z" />
<glyph unicode="&#xc0;" d="M49 0h1041q16 6 53 39t75.5 72t69.5 73.5t35 46.5l51 -231h436l-161 879q-6 25 -17.5 60.5t-27 68t-35 55t-45.5 22.5h-414q-16 0 -42 -15t-52.5 -34.5t-48 -40t-29.5 -32.5l-885 -943v-6q0 6 -4 -14zM823 274v21l414 461l86 -482h-500zM1235 1339.5q4 -12.5 8 -24.5 l14 -47q14 -27 51.5 -47.5t71.5 -20.5q20 0 29 4l14 8q20 8 31.5 23.5t22.5 34.5q14 29 7 50.5t-7 41.5l-19 45q-6 23 -18.5 42t-40.5 19q-14 0 -70 -16q-66 -35 -90 -86q-8 -14 -4 -26.5z" />
<glyph unicode="&#xc1;" d="M49 0h1041q16 6 53 39t75.5 72t69.5 73.5t35 46.5l51 -231h436l-161 879q-6 25 -17.5 60.5t-27 68t-35 55t-45.5 22.5h-414q-16 0 -42 -15t-52.5 -34.5t-48 -40t-29.5 -32.5l-885 -943v-6q0 6 -4 -14zM823 274v21l414 461l86 -482h-500zM1227 1238.5q-2 -15.5 12 -24.5 l6 -8q8 -4 25 -4q18 0 41.5 6t49 15.5t49.5 21.5t42 25l57 47q14 12 28.5 24.5t21.5 26.5q25 51 -19 86q-27 16 -53 16q-29 0 -56.5 -19t-56.5 -42l-59 -45q-16 -20 -41 -42t-37 -50q-8 -18 -10 -33.5z" />
<glyph unicode="&#xc2;" d="M49 0h1041q16 6 53 39t75.5 72t69.5 73.5t35 46.5l51 -231h436l-161 879q-6 25 -17.5 60.5t-27 68t-35 55t-45.5 22.5h-414q-16 0 -42 -15t-52.5 -34.5t-48 -40t-29.5 -32.5l-885 -943v-6q0 6 -4 -14zM823 274v21l414 461l86 -482h-500zM1030 1214q-4 -4 223 0l140 121 l84 -121h202l-116 193q-10 12 -27.5 29.5t-38.5 17.5h-154q-12 0 -24 -9t-27 -15z" />
<glyph unicode="&#xc3;" d="M49 0h1041q16 6 53 39t75.5 72t69.5 73.5t35 46.5l51 -231h436l-161 879q-6 25 -17.5 60.5t-27 68t-35 55t-45.5 22.5h-414q-16 0 -42 -15t-52.5 -34.5t-48 -40t-29.5 -32.5l-885 -943v-6q0 6 -4 -14zM823 274v21l414 461l86 -482h-500zM956 1214h224l143 121l80 -121 h203q12 0 27.5 9.5t25.5 15.5q98 80 151.5 123t78 63.5t28.5 24.5l4 4h-223l-142 -121l-81 121h-201q-14 0 -27.5 -9t-27.5 -15z" />
<glyph unicode="&#xc4;" d="M49 0h1041q16 6 53 39t75.5 72t69.5 73.5t35 46.5l51 -231h436l-161 879q-6 25 -17.5 60.5t-27 68t-35 55t-45.5 22.5h-414q-16 0 -42 -15t-52.5 -34.5t-48 -40t-29.5 -32.5l-885 -943v-6q0 6 -4 -14zM823 274v21l414 461l86 -482h-500zM1030 1337q-23 -51 6 -85.5 t94 -34.5q33 0 66 9t61.5 25.5t51 39t32.5 46.5q23 51 -7.5 86t-96.5 35q-68 0 -126 -35t-81 -86zM1475 1337q-23 -51 6.5 -85.5t95.5 -34.5q68 0 127 34.5t82 85.5t-7 86t-96 35t-127 -34.5t-81 -86.5z" />
<glyph unicode="&#xc5;" d="M49 0h1041q16 6 53 39t75.5 72t69.5 73.5t35 46.5l51 -231h436l-161 879q-6 25 -17.5 60.5t-27 68t-35 55t-45.5 22.5h-414q-16 0 -42 -15t-52.5 -34.5t-48 -40t-29.5 -32.5l-885 -943v-6q0 6 -4 -14zM823 274v21l414 461l86 -482h-500zM1255 1337q-23 -51 6 -85.5 t95 -34.5q68 0 129 34.5t83.5 86t-9 86t-97.5 34.5t-125 -35t-82 -86z" />
<glyph unicode="&#xc6;" horiz-adv-x="2859" d="M49 0h1041q16 6 53 39t75.5 72t69.5 73.5t35 46.5l51 -231h1241q2 0 31 20.5t65.5 50t74.5 62.5t61 57q2 2 11 14.5t19.5 27t19.5 27.5t13 17h-942l55 123h488l352 277h-567l-234 -189l140 322h757q20 0 62.5 32.5t88.5 78t87 91.5t57 74h-1401l-170 -389l-34 183 q-2 27 -13.5 61.5t-29 67t-39 55t-43.5 22.5h-414q-16 0 -42 -15t-52.5 -34.5t-48 -40t-29.5 -32.5l-885 -943v-6q0 6 -4 -14zM823 274v21l414 461l86 -482h-500z" />
<glyph unicode="&#xc7;" horiz-adv-x="1550" d="M266 -238l299 189h131l39 90q-92 23 -169 59.5t-134 92t-89 131t-32 174.5q0 98 52.5 202.5t140.5 190.5t204.5 140t245.5 54h1014q-72 -78 -143.5 -146.5t-157.5 -129.5h-639q-41 0 -78 -17.5t-67.5 -46t-55 -64.5t-39.5 -71q-18 -53 -18 -84q0 -39 24.5 -83t62.5 -80.5 t84 -61.5t87 -25h586q-57 -70 -127 -142.5t-164 -133.5h-197h-59h-27q-23 0 -30 2l-103 -240h-641z" />
<glyph unicode="&#xc8;" horiz-adv-x="1536" d="M70 0h1235q2 0 30.5 20.5t65.5 50t74.5 62.5t60.5 57q2 2 12.5 14.5t20.5 27t19 27.5t11 17h-940l54 123h489l350 277h-567l-233 -189l141 322h756q20 0 63 32.5t89 78t86 91.5t57 74h-1401zM1127.5 1349.5q2.5 -12.5 7.5 -24.5l18 -47q12 -27 50 -47.5t73 -20.5 q4 0 10 1t17 3l14 9q20 8 32.5 23.5t18.5 33.5q14 29 9 50.5t-5 41.5l-20 45q-8 23 -19.5 42.5t-40.5 19.5q-14 0 -67 -17q-74 -35 -92 -86q-8 -14 -5.5 -26.5z" />
<glyph unicode="&#xc9;" horiz-adv-x="1536" d="M70 0h1235q2 0 30.5 20.5t65.5 50t74.5 62.5t60.5 57q2 2 12.5 14.5t20.5 27t19 27.5t11 17h-940l54 123h489l350 277h-567l-233 -189l141 322h756q20 0 63 32.5t89 78t86 91.5t57 74h-1401zM1122 1247q0 -10 13 -22l8 -8q4 -4 22 -5q18 0 42 6.5t49.5 15.5t50 21.5 t41.5 24.5l57 47q16 12 30.5 24.5t18.5 26.5q27 49 -16 86q-27 16 -54 17q-29 0 -57.5 -19.5t-56.5 -42.5l-58 -45q-23 -20 -44 -41.5t-35 -50.5q-10 -16 -11 -35z" />
<glyph unicode="&#xca;" horiz-adv-x="1536" d="M70 0h1235q2 0 30.5 20.5t65.5 50t74.5 62.5t60.5 57q2 2 12.5 14.5t20.5 27t19 27.5t11 17h-940l54 123h489l350 277h-567l-233 -189l141 322h756q20 0 63 32.5t89 78t86 91.5t57 74h-1401zM930 1221h223l145 120l78 -120h201l-115 192q-10 12 -25.5 29.5t-35.5 17.5 h-152q-14 0 -29.5 -9t-27.5 -15z" />
<glyph unicode="&#xcb;" horiz-adv-x="1536" d="M70 0h1235q2 0 30.5 20.5t65.5 50t74.5 62.5t60.5 57q2 2 12.5 14.5t20.5 27t19 27.5t11 17h-940l54 123h489l350 277h-567l-233 -189l141 322h756q20 0 63 32.5t89 78t86 91.5t57 74h-1401zM961 1337q-23 -51 5.5 -85.5t94.5 -34.5q68 0 129 34.5t83.5 86t-9 86 t-97.5 34.5t-124.5 -35t-81.5 -86zM1404.5 1337.5q-22.5 -51.5 8.5 -86t96 -34.5q66 0 126 34.5t83 85.5t-7 86t-97 35q-66 0 -126.5 -34.5t-83 -86z" />
<glyph unicode="&#xcc;" horiz-adv-x="610" d="M70 0h471l475 1085h-473zM722 1341.5q3 -12.5 7 -24.5l19 -47q8 -27 48 -47.5t74 -20.5q20 0 25 4l16 8q20 8 32.5 23.5t19.5 34.5q14 29 9 50.5t-9 41.5l-19 45q-6 23 -18.5 42t-40.5 19q-14 0 -70 -16q-66 -35 -90 -86q-6 -14 -3 -26.5z" />
<glyph unicode="&#xcd;" horiz-adv-x="610" d="M70 0h471l475 1085h-473zM709 1241q0 -14 12 -22l6 -9q4 -4 23 -4q18 0 41.5 6.5t49 15.5t50 21.5t41.5 24.5l59 47q14 12 28.5 24.5t20.5 26.5q25 51 -18 86q-27 16 -53 17q-29 0 -56.5 -19.5t-56.5 -42.5l-59 -45q-20 -20 -43 -41.5t-37 -50.5q-8 -14 -8 -35z" />
<glyph unicode="&#xce;" horiz-adv-x="610" d="M70 0h471l475 1085h-473zM514 1219h223l144 120l80 -120h202l-116 192q-10 12 -26.5 29.5t-37.5 17.5h-152q-14 0 -29.5 -9t-25.5 -15z" />
<glyph unicode="&#xcf;" horiz-adv-x="610" d="M70 0h471l475 1085h-473zM516 1337q-23 -51 6 -85.5t94 -34.5q33 0 66 9t61.5 25.5t51 39t32.5 46.5q23 51 -8 86t-96 35q-66 0 -126.5 -35t-80.5 -86zM960.5 1337.5q-22.5 -51.5 7 -86t97.5 -34.5q66 0 126 34.5t83 85.5t-8 86t-97 35t-126 -34.5t-82.5 -86z" />
<glyph unicode="&#xd0;" horiz-adv-x="1900" d="M219 399h295l-174 -399h610q170 0 312.5 27.5t268.5 87t241.5 155t234.5 228.5q88 98 128 202.5t25.5 189.5t-83 140t-195.5 55h-1069l-178 -409h-66zM936 276l55 123h66l352 277h-299l59 133h400q47 0 64.5 -23.5t17.5 -58.5q0 -57 -29 -117q-12 -27 -30.5 -47 t-32.5 -37q-35 -39 -105 -83t-150.5 -80.5t-159.5 -61.5t-134 -25h-74z" />
<glyph unicode="&#xd1;" horiz-adv-x="1607" d="M70 0h471l266 610l137 -610h594l475 1085h-467l-268 -610l-139 610h-596zM856 1214h223l142 121l82 -121h200q14 0 29.5 9.5t26.5 15.5q98 80 151 123t77.5 63.5t28.5 24.5l5 4h-224l-143 -121l-80 121h-203q-12 0 -26.5 -9t-26.5 -15z" />
<glyph unicode="&#xd2;" horiz-adv-x="1771" d="M285 498q-25 -147 13 -243.5t123 -153t210 -79t276 -22.5h246q147 0 284.5 54.5t248 140.5t183.5 190.5t89 202.5q27 135 -5 229t-112 153.5t-201.5 87t-271.5 27.5h-324q-129 0 -257 -54t-234.5 -140t-178 -190.5t-89.5 -202.5zM750 526q2 16 11 38t23 46q23 35 61 71 t82 64.5t90 46t85 17.5h198q55 0 93.5 -14.5t62 -38t32.5 -53t9 -62.5q0 -43 -6 -82q0 2 -1 -3l-3 -15l-10 -21q-2 -14 -27 -45q-23 -35 -66 -70.5t-91 -64.5t-93 -46.5t-74 -17.5h-163q-47 0 -89.5 25t-73 61.5t-44.5 80.5t-6 83zM1307 1372q-8 -23 6 -51l14 -47 q12 -27 50 -47.5t73 -20.5q23 0 27 4l18 9q16 8 28.5 23t22.5 34q12 29 6 50.5t-6 41.5l-20 45q-4 23 -17.5 42.5t-42.5 19.5q-10 0 -25.5 -4.5t-41.5 -12.5q-63 -31 -92 -86z" />
<glyph unicode="&#xd3;" horiz-adv-x="1771" d="M285 498q-25 -147 13 -243.5t123 -153t210 -79t276 -22.5h246q147 0 284.5 54.5t248 140.5t183.5 190.5t89 202.5q27 135 -5 229t-112 153.5t-201.5 87t-271.5 27.5h-324q-129 0 -257 -54t-234.5 -140t-178 -190.5t-89.5 -202.5zM750 526q2 16 11 38t23 46q23 35 61 71 t82 64.5t90 46t85 17.5h198q55 0 93.5 -14.5t62 -38t32.5 -53t9 -62.5q0 -43 -6 -82q0 2 -1 -3l-3 -15l-10 -21q-2 -14 -27 -45q-23 -35 -66 -70.5t-91 -64.5t-93 -46.5t-74 -17.5h-163q-47 0 -89.5 25t-73 61.5t-44.5 80.5t-6 83zM1280 1241q0 -10 12 -22l8 -9q4 -4 23 -4 q16 0 41 6.5t50.5 15.5t49 21.5t39.5 24.5l60 47q16 12 30.5 24.5t18.5 26.5q27 49 -17 86q-29 16 -55 17q-29 0 -56.5 -19.5t-56.5 -42.5l-59 -45q-20 -20 -42.5 -41.5t-35.5 -50.5q-10 -12 -10 -35z" />
<glyph unicode="&#xd4;" horiz-adv-x="1771" d="M285 498q-25 -147 13 -243.5t123 -153t210 -79t276 -22.5h246q147 0 284.5 54.5t248 140.5t183.5 190.5t89 202.5q27 135 -5 229t-112 153.5t-201.5 87t-271.5 27.5h-324q-129 0 -257 -54t-234.5 -140t-178 -190.5t-89.5 -202.5zM750 526q2 16 11 38t23 46q23 35 61 71 t82 64.5t90 46t85 17.5h198q55 0 93.5 -14.5t62 -38t32.5 -53t9 -62.5q0 -43 -6 -82q0 2 -1 -3l-3 -15l-10 -21q-2 -14 -27 -45q-23 -35 -66 -70.5t-91 -64.5t-93 -46.5t-74 -17.5h-163q-47 0 -89.5 25t-73 61.5t-44.5 80.5t-6 83zM1057 1217h223l145 120l78 -120h203 l-117 192q-10 12 -24.5 29.5t-36.5 17.5h-152q-12 0 -27.5 -9t-29.5 -15z" />
<glyph unicode="&#xd5;" horiz-adv-x="1771" d="M285 498q-25 -147 13 -243.5t123 -153t210 -79t276 -22.5h246q147 0 284.5 54.5t248 140.5t183.5 190.5t89 202.5q27 135 -5 229t-112 153.5t-201.5 87t-271.5 27.5h-324q-129 0 -257 -54t-234.5 -140t-178 -190.5t-89.5 -202.5zM750 526q2 16 11 38t23 46q23 35 61 71 t82 64.5t90 46t85 17.5h198q55 0 93.5 -14.5t62 -38t32.5 -53t9 -62.5q0 -43 -6 -82q0 2 -1 -3l-3 -15l-10 -21q-2 -14 -27 -45q-23 -35 -66 -70.5t-91 -64.5t-93 -46.5t-74 -17.5h-163q-47 0 -89.5 25t-73 61.5t-44.5 80.5t-6 83zM944 1214h223l144 121l80 -121h202 q12 0 27.5 9.5t26.5 15.5q98 80 151 123t78 63.5t29 24.5l4 4h-223l-142 -121l-82 121h-200q-14 0 -27.5 -9t-28.5 -15z" />
<glyph unicode="&#xd6;" horiz-adv-x="1771" d="M285 498q-25 -147 13 -243.5t123 -153t210 -79t276 -22.5h246q147 0 284.5 54.5t248 140.5t183.5 190.5t89 202.5q27 135 -5 229t-112 153.5t-201.5 87t-271.5 27.5h-324q-129 0 -257 -54t-234.5 -140t-178 -190.5t-89.5 -202.5zM750 526q2 16 11 38t23 46q23 35 61 71 t82 64.5t90 46t85 17.5h198q55 0 93.5 -14.5t62 -38t32.5 -53t9 -62.5q0 -43 -6 -82q0 2 -1 -3l-3 -15l-10 -21q-2 -14 -27 -45q-23 -35 -66 -70.5t-91 -64.5t-93 -46.5t-74 -17.5h-163q-47 0 -89.5 25t-73 61.5t-44.5 80.5t-6 83zM1073 1337q-23 -51 6 -85.5t97 -34.5 q66 0 127 34.5t83.5 86t-9 86t-97.5 34.5t-125 -35t-82 -86zM1519.5 1337.5q-22.5 -51.5 7 -86t95.5 -34.5q33 0 65.5 9t61.5 25.5t50.5 38.5t31.5 47q23 51 -7 86t-95 35q-68 0 -127.5 -34.5t-82 -86z" />
<glyph unicode="&#xd7;" horiz-adv-x="980" d="M156 256l413 281l-166 278h306l82 -131l194 131h305l-413 -278l170 -281h-306l-79 133l-203 -133h-303z" />
<glyph unicode="&#xd8;" horiz-adv-x="1771" d="M285 498q-25 -147 13 -243.5t123 -153t210 -79t276 -22.5h246q147 0 284.5 54.5t248 140.5t183.5 190.5t89 202.5q27 135 -5 229t-112 153.5t-201.5 87t-271.5 27.5h-324q-129 0 -257 -54t-234.5 -140t-178 -190.5t-89.5 -202.5zM747 480q-3 23 3 46q2 16 11 38t23 46 q23 35 61 71t82 64.5t90 46t85 17.5h198q27 0 78 -10l-620 -365q-8 23 -11 46zM872 301l619 369q8 -60 0 -111q0 2 -1 -3l-3 -15l-10 -21q-2 -14 -27 -45q-23 -35 -66 -70.5t-91 -64.5t-93 -46.5t-74 -17.5h-163q-51 0 -91 25z" />
<glyph unicode="&#xd9;" horiz-adv-x="1675" d="M279 401q-51 -219 94 -310t489 -91h289q145 0 251.5 38t187.5 111.5t144.5 181t125.5 249.5l221 505h-467l-264 -608q-18 -29 -47 -63.5t-69 -65.5t-90 -51.5t-110 -20.5h-121q-90 0 -122.5 59.5t-16.5 158.5q0 6 4 21t26.5 72.5t70 173.5t133.5 324h-465l-195 -454 q-23 -70 -40 -123t-29 -107zM1262 1370q-10 -23 4 -51l16 -47q14 -27 51 -47.5t72 -20.5q4 0 11 1t18 3l14 9q20 8 31.5 23t19.5 34q12 29 7 50.5t-5 41.5l-18 45q-8 23 -19.5 42.5t-40.5 19.5q-14 0 -69 -17q-68 -33 -92 -86z" />
<glyph unicode="&#xda;" horiz-adv-x="1675" d="M279 401q-51 -219 94 -310t489 -91h289q145 0 251.5 38t187.5 111.5t144.5 181t125.5 249.5l221 505h-467l-264 -608q-18 -29 -47 -63.5t-69 -65.5t-90 -51.5t-110 -20.5h-121q-90 0 -122.5 59.5t-16.5 158.5q0 6 4 21t26.5 72.5t70 173.5t133.5 324h-465l-195 -454 q-23 -70 -40 -123t-29 -107zM1246 1240.5q-1 -15.5 11 -23.5l11 -9q0 -4 22 -4q18 0 42 6.5t49.5 15.5t50 21.5t41.5 24.5l55 47q16 12 30.5 24.5t18.5 26.5q27 51 -14 86q-27 16 -54 17q-29 0 -56.5 -19.5t-55.5 -42.5l-60 -45q-20 -20 -43.5 -41.5t-38.5 -50.5 q-8 -18 -9 -33.5z" />
<glyph unicode="&#xdb;" horiz-adv-x="1675" d="M279 401q-51 -219 94 -310t489 -91h289q145 0 251.5 38t187.5 111.5t144.5 181t125.5 249.5l221 505h-467l-264 -608q-18 -29 -47 -63.5t-69 -65.5t-90 -51.5t-110 -20.5h-121q-90 0 -122.5 59.5t-16.5 158.5q0 6 4 21t26.5 72.5t70 173.5t133.5 324h-465l-195 -454 q-23 -70 -40 -123t-29 -107zM1018 1217h223l143 120l80 -120h203l-117 192q-10 12 -26.5 29.5t-36.5 17.5h-152q-14 0 -27.5 -9t-27.5 -15z" />
<glyph unicode="&#xdc;" horiz-adv-x="1675" d="M279 401q-51 -219 94 -310t489 -91h289q145 0 251.5 38t187.5 111.5t144.5 181t125.5 249.5l221 505h-467l-264 -608q-18 -29 -47 -63.5t-69 -65.5t-90 -51.5t-110 -20.5h-121q-90 0 -122.5 59.5t-16.5 158.5q0 6 4 21t26.5 72.5t70 173.5t133.5 324h-465l-195 -454 q-23 -70 -40 -123t-29 -107zM1036 1335q-23 -51 8 -86t97 -35t126 35t82.5 86t-7 86t-97.5 35q-66 0 -126 -35t-83 -86zM1483 1335q-23 -51 8 -86t96 -35q33 0 66 9.5t60.5 26t49 38.5t31.5 47q23 51 -6 86t-94 35q-33 0 -66 -9t-61.5 -25.5t-51 -39t-32.5 -47.5z" />
<glyph unicode="&#xdd;" horiz-adv-x="1611" d="M518 1085l279 -569l-228 -516h473l226 516l774 569h-526l-349 -256l-123 256h-526zM1222 1240.5q-1 -15.5 11 -23.5l10 -9q0 -4 23 -4q18 0 41.5 6.5t49 15.5t50.5 21.5t41 24.5l55 47q16 12 30.5 24.5t18.5 26.5q27 51 -14 86q-27 16 -53 17q-29 0 -56.5 -19.5 t-56.5 -42.5l-59 -45q-20 -20 -44 -41.5t-38 -50.5q-8 -18 -9 -33.5z" />
<glyph unicode="&#xde;" horiz-adv-x="1671" d="M70 0h471l82 188h690q82 0 174 29t168 81t126 124t50 158q-4 41 -19.5 93t-45 98t-75.5 78t-108 32h-657l90 204h-473zM668 291l135 311h504q6 0 24.5 -17.5t24.5 -27.5l2 -4t2 -6l-6 -10q-2 -6 -10.5 -17.5t-17.5 -24t-17.5 -21.5t-10.5 -9h-393z" />
<glyph unicode="&#xdf;" horiz-adv-x="1648" d="M-57 -289l483 1104q49 70 114.5 137.5t139.5 132.5h946q63 0 110.5 -31.5t78 -77.5t46 -98.5t15.5 -93.5v-4q0 -39 -16.5 -78.5t-43 -75.5t-61.5 -62.5t-69 -39.5q10 -16 34.5 -38.5t26.5 -63.5q0 -29 -13.5 -67t-25.5 -64l-10 -23q-37 -72 -73 -123t-92 -82.5 t-146.5 -47t-233.5 -15.5h-563q66 78 124 148.5t126 130.5h280l12 5q13 5 28.5 12t29.5 14t22 14l4 4q3 4 5 6l6 10q4 6 5 20.5t1 28.5h-359l379 277h88q2 0 11.5 9t19.5 21.5t18.5 23.5t10.5 17l4 11q-2 2 -3 6l-1 4q-8 10 -25.5 27.5t-23.5 17.5h-459l-477 -1096h-473z " />
<glyph unicode="&#xe0;" d="M49 0h1041q16 6 53 39t75.5 72t69.5 73.5t35 46.5l51 -231h436l-161 879q-6 25 -17.5 60.5t-27 68t-35 55t-45.5 22.5h-414q-16 0 -42 -15t-52.5 -34.5t-48 -40t-29.5 -32.5l-885 -943v-6q0 6 -4 -14zM823 274v21l414 461l86 -482h-500zM1235 1339.5q4 -12.5 8 -24.5 l14 -47q14 -27 51.5 -47.5t71.5 -20.5q20 0 29 4l14 8q20 8 31.5 23.5t22.5 34.5q14 29 7 50.5t-7 41.5l-19 45q-6 23 -18.5 42t-40.5 19q-14 0 -70 -16q-66 -35 -90 -86q-8 -14 -4 -26.5z" />
<glyph unicode="&#xe1;" d="M49 0h1041q16 6 53 39t75.5 72t69.5 73.5t35 46.5l51 -231h436l-161 879q-6 25 -17.5 60.5t-27 68t-35 55t-45.5 22.5h-414q-16 0 -42 -15t-52.5 -34.5t-48 -40t-29.5 -32.5l-885 -943v-6q0 6 -4 -14zM823 274v21l414 461l86 -482h-500zM1227 1238.5q-2 -15.5 12 -24.5 l6 -8q8 -4 25 -4q18 0 41.5 6t49 15.5t49.5 21.5t42 25l57 47q14 12 28.5 24.5t21.5 26.5q25 51 -19 86q-27 16 -53 16q-29 0 -56.5 -19t-56.5 -42l-59 -45q-16 -20 -41 -42t-37 -50q-8 -18 -10 -33.5z" />
<glyph unicode="&#xe2;" d="M49 0h1041q16 6 53 39t75.5 72t69.5 73.5t35 46.5l51 -231h436l-161 879q-6 25 -17.5 60.5t-27 68t-35 55t-45.5 22.5h-414q-16 0 -42 -15t-52.5 -34.5t-48 -40t-29.5 -32.5l-885 -943v-6q0 6 -4 -14zM823 274v21l414 461l86 -482h-500zM1030 1214q-4 -4 223 0l140 121 l84 -121h202l-116 193q-10 12 -27.5 29.5t-38.5 17.5h-154q-12 0 -24 -9t-27 -15z" />
<glyph unicode="&#xe3;" d="M49 0h1041q16 6 53 39t75.5 72t69.5 73.5t35 46.5l51 -231h436l-161 879q-6 25 -17.5 60.5t-27 68t-35 55t-45.5 22.5h-414q-16 0 -42 -15t-52.5 -34.5t-48 -40t-29.5 -32.5l-885 -943v-6q0 6 -4 -14zM823 274v21l414 461l86 -482h-500zM956 1214h224l143 121l80 -121 h203q12 0 27.5 9.5t25.5 15.5q98 80 151.5 123t78 63.5t28.5 24.5l4 4h-223l-142 -121l-81 121h-201q-14 0 -27.5 -9t-27.5 -15z" />
<glyph unicode="&#xe4;" d="M49 0h1041q16 6 53 39t75.5 72t69.5 73.5t35 46.5l51 -231h436l-161 879q-6 25 -17.5 60.5t-27 68t-35 55t-45.5 22.5h-414q-16 0 -42 -15t-52.5 -34.5t-48 -40t-29.5 -32.5l-885 -943v-6q0 6 -4 -14zM823 274v21l414 461l86 -482h-500zM1030 1337q-23 -51 6 -85.5 t94 -34.5q33 0 66 9t61.5 25.5t51 39t32.5 46.5q23 51 -7.5 86t-96.5 35q-68 0 -126 -35t-81 -86zM1475 1337q-23 -51 6.5 -85.5t95.5 -34.5q68 0 127 34.5t82 85.5t-7 86t-96 35t-127 -34.5t-81 -86.5z" />
<glyph unicode="&#xe5;" d="M49 0h1041q16 6 53 39t75.5 72t69.5 73.5t35 46.5l51 -231h436l-161 879q-6 25 -17.5 60.5t-27 68t-35 55t-45.5 22.5h-414q-16 0 -42 -15t-52.5 -34.5t-48 -40t-29.5 -32.5l-885 -943v-6q0 6 -4 -14zM823 274v21l414 461l86 -482h-500zM1255 1337q-23 -51 6 -85.5 t95 -34.5q68 0 129 34.5t83.5 86t-9 86t-97.5 34.5t-125 -35t-82 -86z" />
<glyph unicode="&#xe6;" horiz-adv-x="2859" d="M49 0h1041q16 6 53 39t75.5 72t69.5 73.5t35 46.5l51 -231h1241q2 0 31 20.5t65.5 50t74.5 62.5t61 57q2 2 11 14.5t19.5 27t19.5 27.5t13 17h-942l55 123h488l352 277h-567l-234 -189l140 322h757q20 0 62.5 32.5t88.5 78t87 91.5t57 74h-1401l-170 -389l-34 183 q-2 27 -13.5 61.5t-29 67t-39 55t-43.5 22.5h-414q-16 0 -42 -15t-52.5 -34.5t-48 -40t-29.5 -32.5l-885 -943v-6q0 6 -4 -14zM823 274v21l414 461l86 -482h-500z" />
<glyph unicode="&#xe7;" horiz-adv-x="1550" d="M266 -238l299 189h131l39 90q-92 23 -169 59.5t-134 92t-89 131t-32 174.5q0 98 52.5 202.5t140.5 190.5t204.5 140t245.5 54h1014q-72 -78 -143.5 -146.5t-157.5 -129.5h-639q-41 0 -78 -17.5t-67.5 -46t-55 -64.5t-39.5 -71q-18 -53 -18 -84q0 -39 24.5 -83t62.5 -80.5 t84 -61.5t87 -25h586q-57 -70 -127 -142.5t-164 -133.5h-197h-59h-27q-23 0 -30 2l-103 -240h-641z" />
<glyph unicode="&#xe8;" horiz-adv-x="1536" d="M70 0h1235q2 0 30.5 20.5t65.5 50t74.5 62.5t60.5 57q2 2 12.5 14.5t20.5 27t19 27.5t11 17h-940l54 123h489l350 277h-567l-233 -189l141 322h756q20 0 63 32.5t89 78t86 91.5t57 74h-1401zM1127.5 1349.5q2.5 -12.5 7.5 -24.5l18 -47q12 -27 50 -47.5t73 -20.5 q4 0 10 1t17 3l14 9q20 8 32.5 23.5t18.5 33.5q14 29 9 50.5t-5 41.5l-20 45q-8 23 -19.5 42.5t-40.5 19.5q-14 0 -67 -17q-74 -35 -92 -86q-8 -14 -5.5 -26.5z" />
<glyph unicode="&#xe9;" horiz-adv-x="1536" d="M70 0h1235q2 0 30.5 20.5t65.5 50t74.5 62.5t60.5 57q2 2 12.5 14.5t20.5 27t19 27.5t11 17h-940l54 123h489l350 277h-567l-233 -189l141 322h756q20 0 63 32.5t89 78t86 91.5t57 74h-1401zM1122 1247q0 -10 13 -22l8 -8q4 -4 22 -5q18 0 42 6.5t49.5 15.5t50 21.5 t41.5 24.5l57 47q16 12 30.5 24.5t18.5 26.5q27 49 -16 86q-27 16 -54 17q-29 0 -57.5 -19.5t-56.5 -42.5l-58 -45q-23 -20 -44 -41.5t-35 -50.5q-10 -16 -11 -35z" />
<glyph unicode="&#xea;" horiz-adv-x="1536" d="M70 0h1235q2 0 30.5 20.5t65.5 50t74.5 62.5t60.5 57q2 2 12.5 14.5t20.5 27t19 27.5t11 17h-940l54 123h489l350 277h-567l-233 -189l141 322h756q20 0 63 32.5t89 78t86 91.5t57 74h-1401zM930 1221h223l145 120l78 -120h201l-115 192q-10 12 -25.5 29.5t-35.5 17.5 h-152q-14 0 -29.5 -9t-27.5 -15z" />
<glyph unicode="&#xeb;" horiz-adv-x="1536" d="M70 0h1235q2 0 30.5 20.5t65.5 50t74.5 62.5t60.5 57q2 2 12.5 14.5t20.5 27t19 27.5t11 17h-940l54 123h489l350 277h-567l-233 -189l141 322h756q20 0 63 32.5t89 78t86 91.5t57 74h-1401zM961 1337q-23 -51 5.5 -85.5t94.5 -34.5q68 0 129 34.5t83.5 86t-9 86 t-97.5 34.5t-124.5 -35t-81.5 -86zM1404.5 1337.5q-22.5 -51.5 8.5 -86t96 -34.5q66 0 126 34.5t83 85.5t-7 86t-97 35q-66 0 -126.5 -34.5t-83 -86z" />
<glyph unicode="&#xec;" horiz-adv-x="610" d="M70 0h471l475 1085h-473zM722 1341.5q3 -12.5 7 -24.5l19 -47q8 -27 48 -47.5t74 -20.5q20 0 25 4l16 8q20 8 32.5 23.5t19.5 34.5q14 29 9 50.5t-9 41.5l-19 45q-6 23 -18.5 42t-40.5 19q-14 0 -70 -16q-66 -35 -90 -86q-6 -14 -3 -26.5z" />
<glyph unicode="&#xed;" horiz-adv-x="610" d="M70 0h471l475 1085h-473zM709 1241q0 -14 12 -22l6 -9q4 -4 23 -4q18 0 41.5 6.5t49 15.5t50 21.5t41.5 24.5l59 47q14 12 28.5 24.5t20.5 26.5q25 51 -18 86q-27 16 -53 17q-29 0 -56.5 -19.5t-56.5 -42.5l-59 -45q-20 -20 -43 -41.5t-37 -50.5q-8 -14 -8 -35z" />
<glyph unicode="&#xee;" horiz-adv-x="610" d="M70 0h471l475 1085h-473zM514 1219h223l144 120l80 -120h202l-116 192q-10 12 -26.5 29.5t-37.5 17.5h-152q-14 0 -29.5 -9t-25.5 -15z" />
<glyph unicode="&#xef;" horiz-adv-x="610" d="M70 0h471l475 1085h-473zM516 1337q-23 -51 6 -85.5t94 -34.5q33 0 66 9t61.5 25.5t51 39t32.5 46.5q23 51 -8 86t-96 35q-66 0 -126.5 -35t-80.5 -86zM960.5 1337.5q-22.5 -51.5 7 -86t97.5 -34.5q66 0 126 34.5t83 85.5t-8 86t-97 35t-126 -34.5t-82.5 -86z" />
<glyph unicode="&#xf0;" horiz-adv-x="1587" d="M206 255.5q-5 -71.5 18.5 -128.5t79.5 -92t147 -35q150 0 314.5 22.5t329.5 79t318.5 152.5t282.5 244q88 98 128 202.5t25.5 190.5t-83 140t-195.5 54h-1016q2 -78 14.5 -146.5t46.5 -129.5h639q61 0 79 -40t5 -93h-667q-158 -23 -260 -93.5t-168 -183.5 q-33 -72 -38 -143.5zM676 279l8 77q27 18 50.5 36t76.5 24h303q-84 -51 -160.5 -94t-134.5 -43h-143z" />
<glyph unicode="&#xf1;" horiz-adv-x="1607" d="M70 0h471l266 610l137 -610h594l475 1085h-467l-268 -610l-139 610h-596zM856 1214h223l142 121l82 -121h200q14 0 29.5 9.5t26.5 15.5q98 80 151 123t77.5 63.5t28.5 24.5l5 4h-224l-143 -121l-80 121h-203q-12 0 -26.5 -9t-26.5 -15z" />
<glyph unicode="&#xf2;" horiz-adv-x="1771" d="M285 498q-25 -147 13 -243.5t123 -153t210 -79t276 -22.5h246q147 0 284.5 54.5t248 140.5t183.5 190.5t89 202.5q27 135 -5 229t-112 153.5t-201.5 87t-271.5 27.5h-324q-129 0 -257 -54t-234.5 -140t-178 -190.5t-89.5 -202.5zM750 526q2 16 11 38t23 46q23 35 61 71 t82 64.5t90 46t85 17.5h198q55 0 93.5 -14.5t62 -38t32.5 -53t9 -62.5q0 -43 -6 -82q0 2 -1 -3l-3 -15l-10 -21q-2 -14 -27 -45q-23 -35 -66 -70.5t-91 -64.5t-93 -46.5t-74 -17.5h-163q-47 0 -89.5 25t-73 61.5t-44.5 80.5t-6 83zM1307 1372q-8 -23 6 -51l14 -47 q12 -27 50 -47.5t73 -20.5q23 0 27 4l18 9q16 8 28.5 23t22.5 34q12 29 6 50.5t-6 41.5l-20 45q-4 23 -17.5 42.5t-42.5 19.5q-10 0 -25.5 -4.5t-41.5 -12.5q-63 -31 -92 -86z" />
<glyph unicode="&#xf3;" horiz-adv-x="1771" d="M285 498q-25 -147 13 -243.5t123 -153t210 -79t276 -22.5h246q147 0 284.5 54.5t248 140.5t183.5 190.5t89 202.5q27 135 -5 229t-112 153.5t-201.5 87t-271.5 27.5h-324q-129 0 -257 -54t-234.5 -140t-178 -190.5t-89.5 -202.5zM750 526q2 16 11 38t23 46q23 35 61 71 t82 64.5t90 46t85 17.5h198q55 0 93.5 -14.5t62 -38t32.5 -53t9 -62.5q0 -43 -6 -82q0 2 -1 -3l-3 -15l-10 -21q-2 -14 -27 -45q-23 -35 -66 -70.5t-91 -64.5t-93 -46.5t-74 -17.5h-163q-47 0 -89.5 25t-73 61.5t-44.5 80.5t-6 83zM1280 1241q0 -10 12 -22l8 -9q4 -4 23 -4 q16 0 41 6.5t50.5 15.5t49 21.5t39.5 24.5l60 47q16 12 30.5 24.5t18.5 26.5q27 49 -17 86q-29 16 -55 17q-29 0 -56.5 -19.5t-56.5 -42.5l-59 -45q-20 -20 -42.5 -41.5t-35.5 -50.5q-10 -12 -10 -35z" />
<glyph unicode="&#xf4;" horiz-adv-x="1771" d="M285 498q-25 -147 13 -243.5t123 -153t210 -79t276 -22.5h246q147 0 284.5 54.5t248 140.5t183.5 190.5t89 202.5q27 135 -5 229t-112 153.5t-201.5 87t-271.5 27.5h-324q-129 0 -257 -54t-234.5 -140t-178 -190.5t-89.5 -202.5zM750 526q2 16 11 38t23 46q23 35 61 71 t82 64.5t90 46t85 17.5h198q55 0 93.5 -14.5t62 -38t32.5 -53t9 -62.5q0 -43 -6 -82q0 2 -1 -3l-3 -15l-10 -21q-2 -14 -27 -45q-23 -35 -66 -70.5t-91 -64.5t-93 -46.5t-74 -17.5h-163q-47 0 -89.5 25t-73 61.5t-44.5 80.5t-6 83zM1057 1217h223l145 120l78 -120h203 l-117 192q-10 12 -24.5 29.5t-36.5 17.5h-152q-12 0 -27.5 -9t-29.5 -15z" />
<glyph unicode="&#xf5;" horiz-adv-x="1771" d="M274 393q0 -115 47.5 -190.5t132.5 -120.5t200.5 -63.5t252.5 -18.5h246q147 0 284.5 54.5t248 140.5t183.5 190.5t89 202.5q12 61 12 112q0 102 -44 176t-124 120t-190.5 67.5t-243.5 21.5h-324q-129 0 -257 -54t-234.5 -140t-178 -190.5t-89.5 -202.5v-6 q-10 -45 -11 -99zM748 500v12q0 12 2 14q2 16 11 38t23 46q23 35 61 71t82 64.5t90 46t85 17.5h198q61 0 99.5 -15.5t60 -41t29.5 -58t8 -65.5q0 -37 -6 -70q0 2 -1 -3l-3 -15l-10 -21q-2 -14 -27 -45q-23 -35 -66 -70.5t-91 -64.5t-93 -46.5t-74 -17.5h-163q-43 0 -83 20.5 t-69 53.5t-46 73t-17 77zM944 1214h223l144 121l80 -121h202q12 0 27.5 9.5t26.5 15.5q98 80 151 123t78 63.5t29 24.5l4 4h-223l-142 -121l-82 121h-200q-14 0 -27.5 -9t-28.5 -15z" />
<glyph unicode="&#xf6;" horiz-adv-x="1771" d="M285 498q-25 -147 13 -243.5t123 -153t210 -79t276 -22.5h246q147 0 284.5 54.5t248 140.5t183.5 190.5t89 202.5q27 135 -5 229t-112 153.5t-201.5 87t-271.5 27.5h-324q-129 0 -257 -54t-234.5 -140t-178 -190.5t-89.5 -202.5zM750 526q2 16 11 38t23 46q23 35 61 71 t82 64.5t90 46t85 17.5h198q55 0 93.5 -14.5t62 -38t32.5 -53t9 -62.5q0 -43 -6 -82q0 2 -1 -3l-3 -15l-10 -21q-2 -14 -27 -45q-23 -35 -66 -70.5t-91 -64.5t-93 -46.5t-74 -17.5h-163q-47 0 -89.5 25t-73 61.5t-44.5 80.5t-6 83zM1073 1337q-23 -51 6 -85.5t97 -34.5 q66 0 127 34.5t83.5 86t-9 86t-97.5 34.5t-125 -35t-82 -86zM1519.5 1337.5q-22.5 -51.5 7 -86t95.5 -34.5q33 0 65.5 9t61.5 25.5t50.5 38.5t31.5 47q23 51 -7 86t-95 35q-68 0 -127.5 -34.5t-82 -86z" />
<glyph unicode="&#xf7;" horiz-adv-x="1060" d="M219 399h742l352 277h-744zM493.5 221q-22.5 -51 9.5 -86t97 -35q66 0 125 35t82 86t-6 86t-96 35q-66 0 -127.5 -35t-84 -86zM774 854q-23 -51 6 -86t94 -35q33 0 66 9.5t61.5 25.5t51 38.5t32.5 47.5q23 51 -7.5 86t-96.5 35t-126.5 -35t-80.5 -86z" />
<glyph unicode="&#xf8;" horiz-adv-x="1771" d="M285 498q-25 -147 13 -243.5t123 -153t210 -79t276 -22.5h246q147 0 284.5 54.5t248 140.5t183.5 190.5t89 202.5q27 135 -5 229t-112 153.5t-201.5 87t-271.5 27.5h-324q-129 0 -257 -54t-234.5 -140t-178 -190.5t-89.5 -202.5zM747 480q-3 23 3 46q2 16 11 38t23 46 q23 35 61 71t82 64.5t90 46t85 17.5h198q27 0 78 -10l-620 -365q-8 23 -11 46zM872 301l619 369q8 -60 0 -111q0 2 -1 -3l-3 -15l-10 -21q-2 -14 -27 -45q-23 -35 -66 -70.5t-91 -64.5t-93 -46.5t-74 -17.5h-163q-51 0 -91 25z" />
<glyph unicode="&#xf9;" horiz-adv-x="1675" d="M279 401q-51 -219 94 -310t489 -91h289q145 0 251.5 38t187.5 111.5t144.5 181t125.5 249.5l221 505h-467l-264 -608q-18 -29 -47 -63.5t-69 -65.5t-90 -51.5t-110 -20.5h-121q-90 0 -122.5 59.5t-16.5 158.5q0 6 4 21t26.5 72.5t70 173.5t133.5 324h-465l-195 -454 q-23 -70 -40 -123t-29 -107zM1262 1370q-10 -23 4 -51l16 -47q14 -27 51 -47.5t72 -20.5q4 0 11 1t18 3l14 9q20 8 31.5 23t19.5 34q12 29 7 50.5t-5 41.5l-18 45q-8 23 -19.5 42.5t-40.5 19.5q-14 0 -69 -17q-68 -33 -92 -86z" />
<glyph unicode="&#xfa;" horiz-adv-x="1675" d="M279 401q-51 -219 94 -310t489 -91h289q145 0 251.5 38t187.5 111.5t144.5 181t125.5 249.5l221 505h-467l-264 -608q-18 -29 -47 -63.5t-69 -65.5t-90 -51.5t-110 -20.5h-121q-90 0 -122.5 59.5t-16.5 158.5q0 6 4 21t26.5 72.5t70 173.5t133.5 324h-465l-195 -454 q-23 -70 -40 -123t-29 -107zM1246 1240.5q-1 -15.5 11 -23.5l11 -9q0 -4 22 -4q18 0 42 6.5t49.5 15.5t50 21.5t41.5 24.5l55 47q16 12 30.5 24.5t18.5 26.5q27 51 -14 86q-27 16 -54 17q-29 0 -56.5 -19.5t-55.5 -42.5l-60 -45q-20 -20 -43.5 -41.5t-38.5 -50.5 q-8 -18 -9 -33.5z" />
<glyph unicode="&#xfb;" horiz-adv-x="1675" d="M279 401q-51 -219 94 -310t489 -91h289q145 0 251.5 38t187.5 111.5t144.5 181t125.5 249.5l221 505h-467l-264 -608q-18 -29 -47 -63.5t-69 -65.5t-90 -51.5t-110 -20.5h-121q-90 0 -122.5 59.5t-16.5 158.5q0 6 4 21t26.5 72.5t70 173.5t133.5 324h-465l-195 -454 q-23 -70 -40 -123t-29 -107zM1018 1217h223l143 120l80 -120h203l-117 192q-10 12 -26.5 29.5t-36.5 17.5h-152q-14 0 -27.5 -9t-27.5 -15z" />
<glyph unicode="&#xfc;" horiz-adv-x="1675" d="M279 401q-51 -219 94 -310t489 -91h289q145 0 251.5 38t187.5 111.5t144.5 181t125.5 249.5l221 505h-467l-264 -608q-18 -29 -47 -63.5t-69 -65.5t-90 -51.5t-110 -20.5h-121q-90 0 -122.5 59.5t-16.5 158.5q0 6 4 21t26.5 72.5t70 173.5t133.5 324h-465l-195 -454 q-23 -70 -40 -123t-29 -107zM1036 1335q-23 -51 8 -86t97 -35t126 35t82.5 86t-7 86t-97.5 35q-66 0 -126 -35t-83 -86zM1483 1335q-23 -51 8 -86t96 -35q33 0 66 9.5t60.5 26t49 38.5t31.5 47q23 51 -6 86t-94 35q-33 0 -66 -9t-61.5 -25.5t-51 -39t-32.5 -47.5z" />
<glyph unicode="&#xfd;" horiz-adv-x="1611" d="M518 1085l279 -569l-228 -516h473l226 516l774 569h-526l-349 -256l-123 256h-526zM1222 1240.5q-1 -15.5 11 -23.5l10 -9q0 -4 23 -4q18 0 41.5 6.5t49 15.5t50.5 21.5t41 24.5l55 47q16 12 30.5 24.5t18.5 26.5q27 51 -14 86q-27 16 -53 17q-29 0 -56.5 -19.5 t-56.5 -42.5l-59 -45q-20 -20 -44 -41.5t-38 -50.5q-8 -18 -9 -33.5z" />
<glyph unicode="&#xfe;" horiz-adv-x="1671" d="M70 0h471l82 188h690q82 0 174 29t168 81t126 124t50 158q-4 41 -19.5 93t-45 98t-75.5 78t-108 32h-657l90 204h-473zM668 291l135 311h504q6 0 24.5 -17.5t24.5 -27.5l2 -4t2 -6l-6 -10q-2 -6 -10.5 -17.5t-17.5 -24t-17.5 -21.5t-10.5 -9h-393z" />
<glyph unicode="&#xff;" horiz-adv-x="1611" d="M518 1085l279 -569l-228 -516h473l226 516l774 569h-526l-349 -256l-123 256h-526zM1018 1335q-23 -51 7 -86t95 -35q33 0 66 9.5t61.5 26t50 39t31.5 46.5q23 51 -7 86t-95 35q-66 0 -127.5 -35t-81.5 -86zM1462 1335q-23 -51 8 -86t99 -35q66 0 124 35t81 86t-6 86 t-95 35q-33 0 -65.5 -9t-61 -25.5t-51 -39t-33.5 -47.5z" />
<glyph unicode="&#x152;" horiz-adv-x="2592" d="M311 498q0 -147 71 -243.5t185.5 -153t261 -79t297.5 -22.5h1235q2 0 31 20.5t65.5 50t74.5 62.5t61 57q2 2 12 14.5t20.5 27t19.5 27.5t11 17h-940l53 123h490l350 277h-567l-234 -189l142 322h755q20 0 63.5 32.5t89.5 78t86 91.5t56 74h-2046q-129 0 -245.5 -54 t-204.5 -140t-140.5 -190.5t-52.5 -202.5zM770 526q0 31 18 84q14 35 39 71t55.5 64.5t67.5 46t78 17.5h451l-234 -533h-217q-41 0 -87 25t-84 61.5t-62.5 80.5t-24.5 83z" />
<glyph unicode="&#x153;" horiz-adv-x="2592" d="M311 498q0 -147 71 -243.5t185.5 -153t261 -79t297.5 -22.5h1235q2 0 31 20.5t65.5 50t74.5 62.5t61 57q2 2 12 14.5t20.5 27t19.5 27.5t11 17h-940l53 123h490l350 277h-567l-234 -189l142 322h755q20 0 63.5 32.5t89.5 78t86 91.5t56 74h-2046q-129 0 -245.5 -54 t-204.5 -138t-140.5 -188.5t-52.5 -202.5v-4zM770 526q0 31 18 84q14 35 39 71t55.5 64.5t67.5 46t78 17.5h451l-234 -533h-217q-41 0 -87 25t-84 61.5t-62.5 80.5t-24.5 83z" />
<glyph unicode="&#x178;" horiz-adv-x="1611" d="M518 1085l279 -569l-228 -516h473l226 516l774 569h-526l-349 -256l-123 256h-526zM1018 1335q-23 -51 7 -86t95 -35q33 0 66 9.5t61.5 26t50 39t31.5 46.5q23 51 -7 86t-95 35q-66 0 -127.5 -35t-81.5 -86zM1462 1335q-23 -51 8 -86t99 -35q66 0 124 35t81 86t-6 86 t-95 35q-33 0 -65.5 -9t-61 -25.5t-51 -39t-33.5 -47.5z" />
<glyph unicode="&#x2c6;" horiz-adv-x="739" d="M416 846h223l145 121l78 -121h203l-115 192q-12 12 -27.5 29.5t-35.5 17.5h-152q-14 0 -29.5 -9t-25.5 -15z" />
<glyph unicode="&#x2dc;" horiz-adv-x="956" d="M416 846h223l145 121l78 -121h203q12 0 27.5 9t27.5 15q98 80 150.5 123t77 63.5t29.5 24.5t7 4h-225l-143 -120l-80 120h-201q-14 0 -29.5 -9t-25.5 -15z" />
<glyph unicode="&#x2000;" horiz-adv-x="740" />
<glyph unicode="&#x2001;" horiz-adv-x="1481" />
<glyph unicode="&#x2002;" horiz-adv-x="740" />
<glyph unicode="&#x2003;" horiz-adv-x="1481" />
<glyph unicode="&#x2004;" horiz-adv-x="493" />
<glyph unicode="&#x2005;" horiz-adv-x="370" />
<glyph unicode="&#x2006;" horiz-adv-x="246" />
<glyph unicode="&#x2007;" horiz-adv-x="246" />
<glyph unicode="&#x2008;" horiz-adv-x="185" />
<glyph unicode="&#x2009;" horiz-adv-x="296" />
<glyph unicode="&#x200a;" horiz-adv-x="82" />
<glyph unicode="&#x2010;" horiz-adv-x="886" d="M219 399l350 277h570l-353 -277h-567z" />
<glyph unicode="&#x2011;" horiz-adv-x="886" d="M219 399l350 277h570l-353 -277h-567z" />
<glyph unicode="&#x2012;" horiz-adv-x="886" d="M219 399l350 277h570l-353 -277h-567z" />
<glyph unicode="&#x2013;" horiz-adv-x="886" d="M219 399l350 277h570l-353 -277h-567z" />
<glyph unicode="&#x2014;" horiz-adv-x="1060" d="M219 399l350 277h744l-352 -277h-742z" />
<glyph unicode="&#x2018;" horiz-adv-x="444" d="M428 825q-25 -53 2 -92t94 -39q33 0 65 10.5t60.5 29t51 42t34.5 49.5l31 76q2 20 5 52t-1 61.5t-18.5 50t-42.5 20.5h-21q-18 0 -52 -19t-69 -47t-65.5 -59.5t-42.5 -58.5z" />
<glyph unicode="&#x2019;" horiz-adv-x="444" d="M447.5 827.5q-3.5 -30.5 2 -60.5t19.5 -50.5t45 -20.5h18q18 0 52 19.5t69 47.5t66 59.5t43 58.5l33 75q23 53 -5 92t-94 39q-33 0 -64.5 -10t-60 -28.5t-50 -42t-34.5 -50.5l-32 -75q-4 -23 -7.5 -53.5z" />
<glyph unicode="&#x201a;" horiz-adv-x="512" d="M89 -2.5q-1 -34.5 6 -66t25.5 -55t55.5 -23.5h23q23 0 62.5 21.5t81.5 52t77 66.5t47 64l37 86q29 59 -7 102.5t-116 43.5q-41 0 -79 -11.5t-71.5 -32t-59.5 -46t-40 -56.5l-37 -86q-4 -25 -5 -59.5z" />
<glyph unicode="&#x201c;" horiz-adv-x="800" d="M430 825q-25 -53 3 -92t93 -39q33 0 65 10.5t60.5 29t51 42t34.5 49.5l33 76q2 20 4 52t-2 61.5t-18.5 50t-42.5 20.5h-21q-18 0 -52 -19t-68.5 -47t-64.5 -59.5t-42 -58.5zM786 825q-25 -53 3 -92t94 -39q33 0 64.5 10.5t60 29t51 42t35.5 49.5l32 76q2 20 4.5 52 t-2 61.5t-18.5 50t-43 20.5h-20q-18 0 -52 -19t-69 -47t-65 -59.5t-42 -58.5z" />
<glyph unicode="&#x201d;" horiz-adv-x="800" d="M447.5 827.5q-3.5 -30.5 2 -60.5t19.5 -50.5t45 -20.5h18q18 0 52 19.5t69 47.5t66 59.5t43 58.5l33 75q23 53 -5 92t-94 39q-33 0 -64.5 -10t-60 -28.5t-50 -42t-34.5 -50.5l-32 -75q-4 -23 -7.5 -53.5zM804 827.5q-3 -30.5 2 -60.5t19.5 -50.5t44.5 -20.5h19 q18 0 52 19.5t68.5 47.5t65.5 59.5t43 58.5l33 75q23 53 -5 92t-93 39q-33 0 -65 -10t-60.5 -28.5t-50 -42t-33.5 -50.5l-33 -75q-4 -23 -7 -53.5z" />
<glyph unicode="&#x201e;" horiz-adv-x="935" d="M89 -2.5q-1 -34.5 6 -66t25.5 -55t55.5 -23.5h23q23 0 62.5 21.5t81.5 52t77 66.5t47 64l37 86q29 59 -7 102.5t-116 43.5q-41 0 -79 -11.5t-71.5 -32t-59.5 -46t-40 -56.5l-37 -86q-4 -25 -5 -59.5zM515 -2.5q-1 -34.5 6 -66t25.5 -55t55.5 -23.5h23q23 0 62.5 21.5 t81.5 52t77 66.5t47 64l37 86q29 59 -8 102.5t-115 43.5q-41 0 -79 -11.5t-71.5 -32t-60.5 -46t-41 -56.5l-37 -86q-2 -25 -3 -59.5z" />
<glyph unicode="&#x2022;" horiz-adv-x="874" d="M305 526q-8 -39 6.5 -83t45 -80.5t72.5 -61.5t89 -25h162q29 0 75 17.5t94 46.5t91 64.5t66 70.5q25 31 26 45l10 21q2 10 3.5 15t1.5 3q2 20 4 39.5t2 42.5q0 33 -9.5 62.5t-33 53t-61.5 38t-93 14.5h-201q-39 0 -85 -17.5t-90 -46t-82 -64.5t-58 -71 q-14 -25 -23.5 -46.5t-11.5 -37.5z" />
<glyph unicode="&#x2026;" horiz-adv-x="1378" d="M131 143q14 31 40 56.5t59.5 46t71.5 32t79 11.5q80 0 115.5 -43t7.5 -103q-12 -31 -38 -56.5t-59.5 -44.5t-72.5 -30.5t-78 -11.5q-80 0 -117 42t-8 101zM561 143q14 31 40 56.5t59.5 46t71.5 32t79 11.5q80 0 116 -43t7 -103q-12 -31 -38 -56.5t-59.5 -44.5 t-72.5 -30.5t-78 -11.5q-80 0 -117 42t-8 101zM997 143q14 31 41 56.5t61 46t71.5 32t78.5 11.5q78 0 115 -43t8 -103q-12 -31 -37.5 -56.5t-59.5 -44.5t-74 -30.5t-79 -11.5q-78 0 -116 42t-9 101z" />
<glyph unicode="&#x202f;" horiz-adv-x="296" />
<glyph unicode="&#x2039;" horiz-adv-x="425" d="M274 475q-4 -10 3.5 -20.5t13.5 -16.5l196 -141l80 186l-112 76l194 111l74 168l-305 -166q-20 -12 -49 -33t-37 -37z" />
<glyph unicode="&#x203a;" horiz-adv-x="425" d="M195 293l305 166q20 12 49 32.5t37 36.5l53 127q6 10 0 20.5t-12 16.5l-195 144v-2h-2l-82 -187l115 -76l-195 -110z" />
<glyph unicode="&#x205f;" horiz-adv-x="370" />
<glyph unicode="&#x20ac;" horiz-adv-x="1818" d="M193 336h417q33 -98 112 -162.5t185.5 -103.5t232.5 -54.5t253 -15.5h196q96 61 166 134t127 142h-588q-76 0 -139 60h57l308 164h-480l-6 14l6 47h271l307 164h-485q33 35 73.5 59.5t87.5 24.5h639q88 61 160 130t143 146h-1015q-92 0 -179.5 -29.5t-163 -78.5 t-136 -114.5t-99.5 -137.5h-45l-307 -164h295l-6 -61h-80z" />
<glyph unicode="&#x25fc;" horiz-adv-x="1085" d="M0 0v1085h1085v-1085h-1085z" />
</font>
</defs>
</svg>
